<?xml version="1.0" encoding="UTF-8" standalone="no"?>
<svg
   xmlns:ooo="http://xml.openoffice.org/svg/export"
   xmlns:dc="http://purl.org/dc/elements/1.1/"
   xmlns:cc="http://creativecommons.org/ns#"
   xmlns:rdf="http://www.w3.org/1999/02/22-rdf-syntax-ns#"
   xmlns:svg="http://www.w3.org/2000/svg"
   xmlns="http://www.w3.org/2000/svg"
   xmlns:xlink="http://www.w3.org/1999/xlink"
   xmlns:sodipodi="http://sodipodi.sourceforge.net/DTD/sodipodi-0.dtd"
   xmlns:inkscape="http://www.inkscape.org/namespaces/inkscape"
   version="1.2"
   width="93mm"
   height="81mm"
   viewBox="0 0 9300 8100"
   preserveAspectRatio="xMidYMid"
   fill-rule="evenodd"
   stroke-width="28.222"
   stroke-linejoin="round"
   xml:space="preserve"
   id="svg87"
   sodipodi:docname="eule_taco.svg"
   inkscape:version="0.92.3 (2405546, 2018-03-11)"><metadata
   id="metadata91"><rdf:RDF><cc:Work
       rdf:about=""><dc:format>image/svg+xml</dc:format><dc:type
         rdf:resource="http://purl.org/dc/dcmitype/StillImage" /></cc:Work></rdf:RDF></metadata><sodipodi:namedview
   pagecolor="#ffffff"
   bordercolor="#666666"
   borderopacity="1"
   objecttolerance="10"
   gridtolerance="10"
   guidetolerance="10"
   inkscape:pageopacity="0"
   inkscape:pageshadow="2"
   inkscape:window-width="1920"
   inkscape:window-height="991"
   id="namedview89"
   showgrid="false"
   inkscape:zoom="2.1803914"
   inkscape:cx="195.09883"
   inkscape:cy="159.70447"
   inkscape:window-x="0"
   inkscape:window-y="29"
   inkscape:window-maximized="1"
   inkscape:current-layer="svg87" />
 <defs
   class="ClipPathGroup"
   id="defs8">
  <clipPath
   id="presentation_clip_path"
   clipPathUnits="userSpaceOnUse">
   <rect
   x="0"
   y="0"
   width="9300"
   height="8100"
   id="rect2" />
  </clipPath>
  <clipPath
   id="presentation_clip_path_shrink"
   clipPathUnits="userSpaceOnUse">
   <rect
   x="9"
   y="8"
   width="9282"
   height="8084"
   id="rect5" />
  </clipPath>
 <filter
   id="filter1108"
   style="color-interpolation-filters:sRGB"><feColorMatrix
     id="feColorMatrix1106"
     values="-3.25 1.79 -0.163043 1.85 0 -3.25 1.79 -0.163043 1.85 0 -3.25 1.79 -0.163043 1.85 0 0 0 0 1 0 " /></filter><filter
   id="e"><feGaussianBlur
     id="feGaussianBlur2"
     stdDeviation="5.0987" /></filter><linearGradient
   gradientUnits="userSpaceOnUse"
   y2="545.53998"
   y1="43.296001"
   x2="9.3491001"
   x1="106.51"
   id="d"><stop
     id="stop5"
     offset="0"
     stop-color="#e3b200" /><stop
     id="stop7"
     offset="1"
     stop-color="#a80" /></linearGradient><linearGradient
   gradientUnits="userSpaceOnUse"
   y2="163.92"
   y1="175.41"
   x2="107.92"
   x1="44.946999"
   id="a"><stop
     id="stop10"
     offset="0"
     stop-color="#d7f4e3" /><stop
     id="stop12"
     offset="1"
     stop-opacity="0"
     stop-color="#d7f4e3" /></linearGradient><linearGradient
   gradientUnits="userSpaceOnUse"
   y2="479.07999"
   y1="-40.048"
   x2="-168.67"
   x1="435.34"
   id="c"><stop
     id="stop15"
     offset="0"
     stop-color="#a80" /><stop
     id="stop17"
     offset="1"
     stop-opacity="0"
     stop-color="#eeb534" /></linearGradient><linearGradient
   gradientUnits="userSpaceOnUse"
   y2="285.07999"
   y1="30.417999"
   x2="103.97"
   x1="272.67001"
   id="b"><stop
     id="stop20"
     offset="0"
     stop-color="#eeb534" /><stop
     id="stop22"
     offset="1"
     stop-opacity="0"
     stop-color="#eeb534" /></linearGradient><linearGradient
   y2="163.92"
   x2="107.92"
   y1="175.41"
   x1="44.946999"
   gradientUnits="userSpaceOnUse"
   id="linearGradient965"
   xlink:href="#a"
   inkscape:collect="always" /><linearGradient
   inkscape:collect="always"
   xlink:href="#a"
   id="linearGradient1193"
   gradientUnits="userSpaceOnUse"
   x1="44.946999"
   y1="175.41"
   x2="107.92"
   y2="163.92" /><linearGradient
   inkscape:collect="always"
   xlink:href="#a"
   id="linearGradient1195"
   gradientUnits="userSpaceOnUse"
   x1="44.946999"
   y1="175.41"
   x2="107.92"
   y2="163.92" /></defs>
 <defs
   class="TextShapeIndex"
   id="defs12">
  <g
   ooo:slide="id1"
   ooo:id-list="id3"
   id="g10" />
 </defs>
 <defs
   class="EmbeddedBulletChars"
   id="defs44">
  <g
   id="bullet-char-template-57356"
   transform="scale(0.00048828125,-0.00048828125)">
   <path
   d="M 580,1141 L 1163,571 580,0 -4,571 580,1141 Z"
   id="path14" />
  </g>
  <g
   id="bullet-char-template-57354"
   transform="scale(0.00048828125,-0.00048828125)">
   <path
   d="M 8,1128 L 1137,1128 1137,0 8,0 8,1128 Z"
   id="path17" />
  </g>
  <g
   id="bullet-char-template-10146"
   transform="scale(0.00048828125,-0.00048828125)">
   <path
   d="M 174,0 L 602,739 174,1481 1456,739 174,0 Z M 1358,739 L 309,1346 659,739 1358,739 Z"
   id="path20" />
  </g>
  <g
   id="bullet-char-template-10132"
   transform="scale(0.00048828125,-0.00048828125)">
   <path
   d="M 2015,739 L 1276,0 717,0 1260,543 174,543 174,936 1260,936 717,1481 1274,1481 2015,739 Z"
   id="path23" />
  </g>
  <g
   id="bullet-char-template-10007"
   transform="scale(0.00048828125,-0.00048828125)">
   <path
   d="M 0,-2 C -7,14 -16,27 -25,37 L 356,567 C 262,823 215,952 215,954 215,979 228,992 255,992 264,992 276,990 289,987 310,991 331,999 354,1012 L 381,999 492,748 772,1049 836,1024 860,1049 C 881,1039 901,1025 922,1006 886,937 835,863 770,784 769,783 710,716 594,584 L 774,223 C 774,196 753,168 711,139 L 727,119 C 717,90 699,76 672,76 641,76 570,178 457,381 L 164,-76 C 142,-110 111,-127 72,-127 30,-127 9,-110 8,-76 1,-67 -2,-52 -2,-32 -2,-23 -1,-13 0,-2 Z"
   id="path26" />
  </g>
  <g
   id="bullet-char-template-10004"
   transform="scale(0.00048828125,-0.00048828125)">
   <path
   d="M 285,-33 C 182,-33 111,30 74,156 52,228 41,333 41,471 41,549 55,616 82,672 116,743 169,778 240,778 293,778 328,747 346,684 L 369,508 C 377,444 397,411 428,410 L 1163,1116 C 1174,1127 1196,1133 1229,1133 1271,1133 1292,1118 1292,1087 L 1292,965 C 1292,929 1282,901 1262,881 L 442,47 C 390,-6 338,-33 285,-33 Z"
   id="path29" />
  </g>
  <g
   id="bullet-char-template-9679"
   transform="scale(0.00048828125,-0.00048828125)">
   <path
   d="M 813,0 C 632,0 489,54 383,161 276,268 223,411 223,592 223,773 276,916 383,1023 489,1130 632,1184 813,1184 992,1184 1136,1130 1245,1023 1353,916 1407,772 1407,592 1407,412 1353,268 1245,161 1136,54 992,0 813,0 Z"
   id="path32" />
  </g>
  <g
   id="bullet-char-template-8226"
   transform="scale(0.00048828125,-0.00048828125)">
   <path
   d="M 346,457 C 273,457 209,483 155,535 101,586 74,649 74,723 74,796 101,859 155,911 209,963 273,989 346,989 419,989 480,963 531,910 582,859 608,796 608,723 608,648 583,586 532,535 482,483 420,457 346,457 Z"
   id="path35" />
  </g>
  <g
   id="bullet-char-template-8211"
   transform="scale(0.00048828125,-0.00048828125)">
   <path
   d="M -4,459 L 1135,459 1135,606 -4,606 -4,459 Z"
   id="path38" />
  </g>
  <g
   id="bullet-char-template-61548"
   transform="scale(0.00048828125,-0.00048828125)">
   <path
   d="M 173,740 C 173,903 231,1043 346,1159 462,1274 601,1332 765,1332 928,1332 1067,1274 1183,1159 1299,1043 1357,903 1357,740 1357,577 1299,437 1183,322 1067,206 928,148 765,148 601,148 462,206 346,322 231,437 173,577 173,740 Z"
   id="path41" />
  </g>
 </defs>
 <defs
   class="TextEmbeddedBitmaps"
   id="defs46" />
 <g
   id="g51">
  <g
   id="id2"
   class="Master_Slide">
   <g
   id="bg-id2"
   class="Background" />
   <g
   id="bo-id2"
   class="BackgroundObjects" />
  </g>
 </g>
 <g
   class="SlideGroup"
   id="g85">
  <g
   id="g83">
   <g
   id="container-id1">
    <g
   id="id1"
   class="Slide"
   clip-path="url(#presentation_clip_path)">
     <g
   class="Page"
   id="g79">
      <g
   class="Graphic"
   id="g77">
       <g
   id="id3">
        <rect
   class="BoundingBox"
   stroke="none"
   fill="none"
   x="0"
   y="0"
   width="9300"
   height="8100"
   id="rect53" />
        <defs
   id="defs58">
         <clipPath
   id="clip_path_1"
   clipPathUnits="userSpaceOnUse">
          <path
   d="M 0,0 L 9299,0 9299,8099 0,8099 0,0 Z"
   id="path55" />
         </clipPath>
        </defs>
        <g
   clip-path="url(#clip_path_1)"
   id="g74">
         <path
   fill="rgb(255,255,255)"
   stroke="none"
   d="M 4736,1276 C 4736,1325 4724,1366 4699,1408 4673,1450 4641,1481 4597,1505 4553,1529 4509,1540 4458,1540 4407,1540 4364,1529 4319,1505 4275,1481 4243,1450 4218,1408 4192,1366 4180,1325 4180,1276 4180,1227 4192,1186 4218,1144 4243,1102 4275,1071 4319,1047 4364,1023 4407,1011 4458,1011 4509,1011 4553,1023 4597,1047 4641,1071 4673,1102 4699,1144 4724,1186 4736,1227 4736,1276 L 4736,1276 Z"
   id="path60" />
         <path
   fill="none"
   stroke="rgb(0,0,0)"
   stroke-width="53"
   stroke-linejoin="miter"
   d="M 4736,1276 C 4736,1325 4724,1366 4699,1408 4673,1450 4641,1481 4597,1505 4553,1529 4509,1540 4458,1540 4407,1540 4364,1529 4319,1505 4275,1481 4243,1450 4218,1408 4192,1366 4180,1325 4180,1276 4180,1227 4192,1186 4218,1144 4243,1102 4275,1071 4319,1047 4364,1023 4407,1011 4458,1011 4509,1011 4553,1023 4597,1047 4641,1071 4673,1102 4699,1144 4724,1186 4736,1227 4736,1276 L 4736,1276 Z"
   id="path62" />
         <path
   fill="rgb(0,0,0)"
   stroke="none"
   d="M -2143,9272 C -2168,9257 -2236,9159 -2296,9053 -2430,8812 -2473,8787 -2508,8929 -2535,9038 -2622,9078 -2673,9004 -2687,8984 -2754,9019 -2822,9082 -2890,9145 -2970,9188 -2999,9178 -3029,9168 -3065,9070 -3080,8961 -3113,8719 -3236,8356 -3352,8161 -3398,8082 -3437,7999 -3437,7977 -3437,7954 -3512,7838 -3605,7720 -3756,7524 -3768,7494 -3725,7401 -3688,7319 -3690,7275 -3737,7191 -3770,7133 -3809,7039 -3824,6982 -3839,6926 -3953,6771 -4077,6639 -4202,6506 -4304,6376 -4304,6349 -4304,6323 -4328,6268 -4358,6227 -4444,6110 -4436,5986 -4342,5986 -4271,5986 -4262,5959 -4262,5744 -4262,5607 -4244,5502 -4221,5502 -4198,5502 -4180,5596 -4180,5710 -4180,5956 -4073,6318 -3992,6346 -3910,6374 -3696,6225 -3579,6057 -3448,5871 -3449,5680 -3581,5297 -3637,5133 -3683,4962 -3684,4916 -3685,4804 -3804,4490 -3873,4420 -3904,4388 -3920,4330 -3909,4290 -3896,4244 -3943,4148 -4034,4033 -4114,3932 -4180,3831 -4179,3809 -4179,3787 -4129,3845 -4067,3937 -3896,4194 -3892,4079 -4051,3481 -4073,3399 -4073,3341 -4052,3341 -4031,3341 -4015,3371 -4015,3409 -4015,3446 -3971,3593 -3918,3735 -3864,3877 -3806,4060 -3788,4142 L -3756,4291 -3618,4030 C -3521,3846 -3479,3709 -3474,3564 L -3467,3360 -3434,3602 C -3415,3738 -3416,3876 -3437,3918 -3660,4366 -3645,4837 -3388,5474 -3319,5646 -3307,5736 -3328,5921 -3353,6131 -3372,6167 -3542,6323 L -3730,6495 -3608,6734 C -3541,6866 -3456,7038 -3420,7118 -3366,7235 -3343,7254 -3296,7218 -3256,7188 -3229,7187 -3211,7214 -3165,7281 -3117,7257 -3088,7150 -3073,7094 -3006,6987 -2940,6912 -2874,6837 -2791,6703 -2756,6614 -2673,6404 -2622,5672 -2688,5635 -2759,5596 -2744,5539 -2662,5539 -2622,5539 -2571,5577 -2549,5623 -2451,5824 -2429,5759 -2220,4645 -2110,4058 -2150,3121 -2303,2680 -2324,2618 -2315,2596 -2269,2596 -2170,2596 -2160,2167 -2246,1627 -2287,1370 -2328,1048 -2337,910 -2348,747 -2384,615 -2439,530 -2488,455 -2508,390 -2485,378 -2431,348 -2641,117 -3108,-307 -3518,-678 -3904,-1105 -3864,-1141 -3834,-1169 -4217,-1653 -4289,-1678 -4351,-1699 -4366,-1801 -4308,-1801 -4235,-1801 -3804,-1343 -3699,-1155 -3534,-860 -2646,-67 -2436,-27 -2419,-24 -2357,-19 -2299,-17 -2240,-14 -2205,4 -2219,25 -2233,45 -2226,62 -2203,62 -2180,62 -2109,0 -2046,-77 -1982,-154 -1797,-357 -1635,-528 -1439,-735 -1325,-891 -1296,-994 -1158,-1477 -1125,-1640 -1148,-1732 -1161,-1789 -1152,-1865 -1126,-1902 -1086,-1960 -1083,-1958 -1105,-1885 -1146,-1750 -1083,-1703 -997,-1805 -955,-1854 -920,-1874 -920,-1849 -919,-1825 -936,-1795 -957,-1784 -1008,-1755 -1157,-1338 -1188,-1137 L -1213,-976 -1075,-1118 C -734,-1468 -589,-1649 -589,-1722 -589,-1765 -570,-1796 -546,-1791 -523,-1786 -430,-1857 -339,-1950 L -174,-2117 -319,-1862 C -472,-1591 -644,-1363 -945,-1029 -1047,-916 -1178,-755 -1237,-670 -1296,-585 -1454,-400 -1588,-259 -1722,-118 -1823,16 -1813,39 -1802,62 -1781,109 -1766,143 -1747,186 -1765,212 -1824,229 -1893,249 -1901,267 -1868,323 -1836,378 -1846,405 -1915,449 -1996,500 -2000,518 -1957,665 -1931,754 -1902,960 -1893,1124 -1876,1448 -1801,2206 -1759,2499 -1744,2599 -1698,2712 -1657,2749 -1532,2862 -1524,2978 -1628,3158 -1719,3315 -1724,3359 -1724,4105 -1724,4867 -1691,5241 -1624,5241 -1574,5241 -1117,4723 -1016,4552 -968,4470 -859,4227 -774,4011 -639,3670 -271,2931 -236,2931 -223,2931 -254,3031 -335,3248 -372,3349 -475,3656 -647,4181 -681,4285 -721,4398 -736,4433 -754,4475 -742,4496 -699,4496 -664,4496 -624,4529 -609,4570 -595,4611 -566,4645 -545,4645 -524,4645 -506,4670 -506,4701 -506,4770 -510,4770 -315,4696 -147,4632 255,4566 462,4567 529,4568 673,4608 782,4657 891,4705 982,4731 985,4714 988,4696 993,4669 998,4654 1002,4639 1020,4517 1039,4384 1057,4251 1128,4002 1196,3831 1309,3549 1316,3507 1270,3380 1208,3214 1217,3196 1632,2652 1875,2333 1941,2271 2088,2224 2281,2162 2294,2137 2177,2047 2087,1977 2066,1888 2140,1888 2173,1888 2171,1871 2135,1832 2100,1793 2097,1762 2127,1729 2150,1704 2179,1574 2192,1441 2205,1308 2216,1193 2216,1185 2217,1178 2246,1182 2280,1193 2369,1224 2466,1032 2466,824 2466,729 2436,559 2400,447 2335,245 2352,133 2430,258 2490,356 2542,337 2583,202 2615,97 2624,91 2649,155 2738,381 2863,594 2925,624 3031,675 3384,666 3478,609 3523,582 3606,558 3662,555 3718,552 3785,524 3811,492 3874,414 3910,420 3910,509 3910,578 3936,583 4262,577 L 4614,570 4725,348 C 4831,134 4836,130 4871,225 L 4908,324 5033,243 5158,163 5127,288 C 5110,357 5096,519 5094,648 5092,902 5175,1028 5328,1001 5388,990 5399,1003 5378,1062 5363,1103 5371,1147 5395,1161 5419,1174 5428,1201 5414,1221 5400,1241 5405,1278 5424,1303 5466,1356 5465,1428 5421,1545 5401,1598 5409,1651 5440,1686 5481,1731 5473,1758 5395,1833 5342,1884 5314,1925 5332,1925 5350,1925 5346,1946 5322,1972 5258,2042 5310,2223 5395,2223 5561,2223 5740,2556 5682,2759 5664,2823 5628,2970 5603,3086 5536,3394 4914,4224 4374,4726 3922,5147 3910,5219 4283,5257 4417,5270 4538,5298 4551,5317 4565,5337 4612,5353 4656,5353 4719,5353 4736,5379 4736,5476 4736,5564 4771,5630 4859,5706 4980,5811 4984,5812 5215,5765 5599,5687 5640,5683 6263,5668 6971,5651 6964,5652 7439,5447 8124,5151 8288,5100 8511,5117 8755,5135 8814,5166 8603,5166 8375,5166 7766,5393 7439,5600 7394,5629 7289,5669 7206,5689 6974,5746 6973,5825 7203,5917 7783,6149 7835,6176 7914,6293 8021,6452 8018,6518 7909,6387 7860,6327 7785,6284 7731,6284 7680,6284 7605,6251 7565,6211 7525,6171 7365,6095 7211,6041 7057,5988 6920,5920 6908,5891 6881,5827 6483,5819 6057,5872 5909,5891 5695,5916 5582,5929 5468,5942 5331,5979 5276,6012 L 5176,6070 5421,6280 C 5556,6395 5748,6548 5848,6619 5948,6691 6100,6805 6186,6873 6369,7019 6525,7035 6723,6928 6964,6796 7253,6755 7585,6806 7781,6836 8060,6841 8432,6823 8827,6804 8987,6809 8987,6838 8987,6865 8923,6871 8795,6855 8655,6838 8611,6843 8632,6874 8665,6922 8488,6933 7604,6935 7139,6936 7049,6946 6923,7013 6844,7055 6774,7113 6768,7143 6752,7224 7000,7358 7320,7440 7602,7513 7819,7516 8460,7455 8619,7440 8651,7447 8632,7491 8616,7529 8644,7549 8726,7559 8790,7567 8657,7574 8430,7576 8156,7578 7944,7600 7800,7644 7639,7692 7569,7698 7528,7667 7355,7538 6663,7419 6431,7480 6393,7489 6338,7432 6279,7323 6188,7154 5913,6917 5582,6725 5491,6672 5243,6476 5030,6290 4647,5955 4642,5952 4448,5960 4341,5964 4205,5944 4146,5916 4088,5887 4008,5875 3969,5889 3905,5911 3907,5922 3994,6006 4076,6085 4080,6098 4018,6098 3832,6098 3711,5920 3826,5816 3881,5766 3831,5613 3760,5613 3728,5613 3690,5640 3676,5673 3656,5720 3614,5727 3476,5708 3344,5690 3284,5699 3234,5745 3155,5816 3149,5880 3217,5941 3298,6015 3188,5994 3081,5916 3000,5857 2992,5832 3029,5758 3089,5638 3022,5514 2884,5490 2824,5479 2769,5485 2762,5503 2724,5598 2412,5993 2240,6164 1977,6426 1893,6466 1805,6368 1747,6303 1729,6300 1661,6345 1537,6426 1448,6405 1391,6281 1362,6218 1296,6152 1245,6134 1140,6098 1048,5798 998,5328 L 970,5061 783,5019 C 319,4913 112,4923 -367,5074 -827,5218 -1160,5407 -1389,5652 -1512,5784 -1525,5837 -1434,5837 -1313,5837 -1324,5949 -1465,6144 -1543,6252 -1632,6399 -1663,6470 -1695,6542 -1772,6690 -1836,6800 -1899,6910 -1951,7028 -1951,7063 -1951,7098 -1967,7142 -1987,7161 -2007,7181 -2082,7293 -2153,7411 -2281,7621 -2283,7634 -2267,8026 -2253,8339 -2226,8484 -2142,8692 -1996,9048 -1997,9356 -2144,9271 L -2143,9272 Z M -3380,7086 C -3394,7053 -3394,7016 -3380,7003 -3366,6990 -3354,6999 -3354,7022 -3354,7045 -3326,7055 -3292,7043 -3258,7031 -3230,6999 -3230,6972 -3230,6903 -3161,6870 -3138,6927 -3127,6953 -3172,7012 -3237,7060 -3340,7136 -3358,7139 -3380,7086 L -3380,7086 Z M -544,-1890 C -546,-1930 -536,-1952 -522,-1939 -509,-1927 -507,-1895 -519,-1868 -532,-1838 -542,-1847 -544,-1890 L -544,-1890 Z"
   id="path64" />
         <path
   fill="rgb(255,255,255)"
   stroke="none"
   d="M 3651,1276 C 3651,1339 3636,1393 3602,1448 3568,1503 3525,1542 3466,1574 3407,1605 3349,1620 3281,1620 3213,1620 3155,1605 3096,1574 3037,1542 2994,1503 2960,1448 2926,1393 2911,1339 2911,1276 2911,1213 2926,1159 2960,1104 2994,1049 3037,1010 3096,978 3155,946 3213,932 3281,932 3349,932 3407,946 3466,978 3525,1010 3568,1049 3602,1104 3636,1159 3651,1213 3651,1276 L 3651,1276 Z"
   id="path66" />
         <path
   fill="rgb(255,255,255)"
   stroke="none"
   d="M 4815,1276 C 4815,1339 4800,1393 4766,1448 4732,1503 4689,1542 4630,1574 4571,1605 4513,1620 4445,1620 4377,1620 4319,1605 4260,1574 4201,1542 4158,1503 4124,1448 4090,1393 4075,1339 4075,1276 4075,1213 4090,1159 4124,1104 4158,1049 4201,1010 4260,978 4319,946 4377,932 4445,932 4513,932 4571,946 4630,978 4689,1010 4732,1049 4766,1104 4800,1159 4815,1213 4815,1276 L 4815,1276 Z"
   id="path68" />
         <path
   fill="rgb(0,0,0)"
   stroke="none"
   d="M 3413,1276 C 3413,1300 3408,1321 3396,1342 3383,1363 3368,1378 3347,1390 3326,1403 3305,1408 3281,1408 3257,1408 3236,1403 3215,1390 3194,1378 3179,1363 3167,1342 3154,1321 3149,1300 3149,1276 3149,1252 3154,1231 3167,1210 3179,1189 3194,1174 3215,1161 3236,1149 3257,1144 3281,1144 3305,1144 3326,1149 3347,1161 3368,1174 3383,1189 3396,1210 3408,1231 3413,1252 3413,1276 L 3413,1276 Z"
   id="path70" />
         <path
   fill="rgb(0,0,0)"
   stroke="none"
   d="M 4577,1276 C 4577,1300 4572,1321 4560,1342 4547,1363 4532,1378 4511,1390 4490,1403 4469,1408 4445,1408 4421,1408 4400,1403 4379,1390 4358,1378 4343,1363 4330,1342 4318,1321 4313,1300 4313,1276 4313,1252 4318,1231 4330,1210 4343,1189 4358,1174 4379,1161 4400,1149 4421,1144 4445,1144 4469,1144 4490,1149 4511,1161 4532,1174 4547,1189 4560,1210 4572,1231 4577,1252 4577,1276 L 4577,1276 Z"
   id="path72" />
        </g>
       </g>
      </g>
     </g>
    </g>
   </g>
  </g>
 </g>
<g
   style="filter:url(#filter1108)"
   id="g133"
   transform="matrix(7.1805314,2.1953088,-2.1953088,7.1805314,5649.2828,3215.9772)"><path
     style="opacity:0.5;filter:url(#e)"
     inkscape:connector-curvature="0"
     id="path27"
     d="m 232.76,9.5848 c -10.704,-0.04767 -21.267,1.266 -31.312,4.25 -1.3816,0.41042 -2.7576,0.85123 -4.125,1.3125 -5.5774,0.98615 -11.004,2.4709 -16.25,4.7188 -1.744,0.50543 -3.5871,1.0665 -5.4375,1.625 l -4.6562,-4.0312 -5.1562,7.125 c -14.017,4.5587 -30.033,10.497 -46.281,18.125 -5.9968,-1.9862 -14.087,-2.3136 -17.656,1.0625 -2.7012,2.5553 -1.6887,5.1576 -0.6875,8.2812 -18.313,10.136 -36.033,22.573 -50.469,37.75 -3.6816,4.1666 -7.1436,8.4958 -10.406,12.969 l -1.625,-0.21875 0.46875,1.8438 c -3.1524,4.425 -6.0814,8.971 -8.8125,13.656 -1.2362,0.62781 -2.0502,1.2832 -2.25,2 -0.13378,0.47992 -0.02366,0.98388 0.25,1.5312 -8.4834,15.342 -14.742,31.918 -18.438,49.219 -3.0779,14.408 -3.8206,42.873 -1.5312,58.438 1.9834,13.484 6.9895,33.381 12.094,48.062 9.6016,27.617 22.728,44.492 37.219,47.906 3.8563,0.90853 4.8662,1.1525 7.6562,0.5625 -0.0821,0.0477 -0.16767,0.0767 -0.25,0.125 1.8192,-0.30584 4.0223,-0.92047 6.4062,-1.7188 1.0975,-0.32369 2.1583,-0.68894 3.2812,-1.1562 l 0.53125,-0.21875 c 0.17627,-0.0771 0.3495,-0.13544 0.53125,-0.21875 7.7155,-3.0026 16.095,-7.1526 19.625,-9.4688 58.434,-38.335 116.82,-72.679 176.81,-108.62 41.573,-24.172 70.448,-41.409 75.938,-45.438 1.5573,-1.1428 2.9338,-2.2838 4.25,-3.4062 3.7419,-2.3316 7.4901,-4.6368 11.25,-7 8.3066,-5.2209 6.6031,-18.945 6.25,-28.75 -0.53163,-14.763 -4.4963,-30.115 -12.5,-42.531 -11.709,-18.165 -28.192,-34.299 -47.094,-45.25 -5.734,-3.6812 -11.73,-6.8924 -17.906,-9.5312 -18.397,-7.8604 -39.284,-12.909 -59.719,-13 z" /><path
     style="fill:#f1ca00"
     inkscape:connector-curvature="0"
     id="path29-8"
     d="M 58.343,324.32 C 43.853,320.9061 30.747,304.025 21.145,276.408 16.0408,261.727 11.033,241.827 9.05,228.343 6.7607,212.778 7.5095,184.316 10.5874,169.908 c 6.4277,-30.089 20.492,-58.002 40.813,-81 36.872,-38.766 95.04,-59.688 130.33,-69.916 16.472,-7.0578 34.62,-6.6356 54.173,-6.6508 16.561,-0.01285 29.316,1.9412 43.704,6.6958 11.691,3.863 29.673,12.121 34.634,15.905 1.7778,1.356 3.5143,2.4654 3.859,2.4654 1.411,0 10.52,7.5829 18.35,15.275 13.472,13.235 22.988,29.272 28.87,48.653 2.1129,6.9618 2.6188,10.731 2.6939,20.071 0.0851,10.586 -0.1282,11.971 -2.6847,17.43 -3.7275,7.9594 -8.3152,13.347 -16.446,19.314 -7.4864,5.4938 -58.209,35.434 -125.78,74.241 -59.241,34.025 -86.535,50.491 -114.5,69.073 -28.961,19.245 -31.047,20.459 -38.46,22.389 -6.5991,1.7184 -6.4978,1.7144 -11.805,0.46395 z" /><path
     style="fill:url(#d)"
     inkscape:connector-curvature="0"
     id="path31"
     d="m 235.91,17.344 c -19.625,0.01522 -37.033,-0.25666 -52.219,6.25 a 4.9916,4.9916 0 0 1 -0.59375,0.1875 c -34.913,10.118 -92.245,31.001 -127.94,68.438 l -0.125,0.125 c -19.688,22.328 -33.326,49.4 -39.562,78.594 -2.8316,13.255 -3.608,42.144 -1.4688,56.688 1.9103,12.988 6.8977,32.84 11.875,47.156 9.3464,26.883 22.055,41.962 33.625,44.688 5.338,1.2576 2.8099,1.2802 9.4062,-0.4375 3.5655,-0.92844 5.0632,-1.3792 9.875,-4.1875 4.8118,-2.8083 12.587,-7.9121 27.062,-17.531 28.081,-18.66 55.48,-35.177 114.75,-69.219 33.771,-19.396 63.337,-36.584 85.375,-49.594 22.038,-13.01 37.073,-22.25 39.969,-24.375 7.7011,-5.6513 11.451,-10.095 14.875,-17.406 1.232,-2.6308 1.6648,-3.6693 1.9375,-5.4375 0.2727,-1.7682 0.32351,-4.5864 0.28125,-9.8438 -0.0737,-9.1621 -0.4647,-11.95 -2.5,-18.656 -5.6697,-18.681 -14.721,-33.885 -27.594,-46.531 -3.8105,-3.7436 -7.9792,-7.4986 -11.281,-10.25 -1.651,-1.3757 -3.0983,-2.5137 -4.0938,-3.2188 -0.38982,-0.27611 -0.62174,-0.41496 -0.8125,-0.53125 0.20558,0.06987 0.47518,0.15625 1.3438,0.15625 -1.066,0 -1.2672,-0.17804 -1.5625,-0.3125 -0.0886,-0.04034 -0.38895,-0.06215 -0.46875,-0.09375 -0.34582,-0.13694 -0.5588,-0.2575 -0.78125,-0.375 -0.44491,-0.235 -0.85634,-0.47654 -1.2812,-0.75 -0.84981,-0.54692 -1.7982,-1.219 -2.7812,-1.9688 -1.5579,-1.1883 -7.4039,-4.3886 -13.844,-7.3438 -6.4401,-2.9552 -13.78,-5.9427 -19.344,-7.7812 -13.94,-4.6065 -25.957,-6.45 -42.125,-6.4375 z" /><path
     style="fill:#73cb2b"
     inkscape:connector-curvature="0"
     id="path37"
     d="m 67.654,228.06 -4.033,-13.818 1.5301,-9.104 -9.495,-0.73699 -2.413,-7.1044 c 0,0 -20.933,4.4688 -16.208,0.88294 4.725,-3.58586 5.853,-13.874 5.853,-13.874 l -6.7247,-0.35726 -8.2099,16.656 c 0,0 -7.4055,19.024 -0.69207,17.404 6.71343,-1.62 14.6,-5.6192 14.6,-5.6192 l 1.9996,3.9432 11.081,1.5189 0.44708,9.0928 z" /><path
     style="fill:#456f00"
     inkscape:connector-curvature="0"
     id="path39"
     d="m 69.365,221.22 6.8002,-12.687 7.4689,-5.4259 -6.2605,-7.1766 3.254,-6.7607 c 0,0 -18.071,-11.473 -12.187,-10.723 5.884,0.75 13.895,-5.8024 13.895,-5.8024 l -4.5493,-4.9652 -17.526,6.1368 c 0,0 -18.61,8.3903 -12.684,11.937 5.926,3.5467 14.356,6.2157 14.356,6.2157 l -1.3348,4.2149 6.8449,8.8457 -6.0499,6.8028 z" /><path
     style="fill:#456f00"
     inkscape:connector-curvature="0"
     id="path41-3"
     d="m 60.892,216.88 -12.844,6.4987 -9.2302,0.1655 1.0169,9.4691 -6.5413,3.675 c 0,0 8.2321,19.759 3.8405,15.772 -4.3916,-3.987 -14.712,-3.2093 -14.712,-3.2093 l 0.88209,6.6762 17.879,5.0161 c 0,0 20.059,3.791 17.235,-2.5114 -2.824,-6.3024 -8.2014,-13.322 -8.2014,-13.322 l 3.5095,-2.6889 -0.53915,-11.172 8.8566,-2.1071 z" /><path
     style="fill:#5a3c08"
     inkscape:connector-curvature="0"
     id="path43"
     d="m 42.257,298.64 c -0.74047,7.478 5.2878,16.664 12.505,18.758 3.9428,1.1435 7.7837,-2.8094 11.255,-5.002 3.249,-2.0525 5.1492,-6.1697 8.7535,-7.503 2.7366,-1.0123 6.3702,1.6833 8.7535,0 11.2,-7.9098 6.7931,-26.954 13.756,-38.766 14.695,-24.931 42.951,-40.023 57.523,-65.026 7.1021,-12.186 21.042,-27.939 13.756,-40.016 -12.639,-20.948 -52.762,-25.671 -72.529,-11.255 -6.4781,4.7246 -2.4672,15.845 -3.7515,23.76 -0.40614,2.5028 0.68414,5.8641 -1.2505,7.503 -5.0888,4.3109 -14.128,-3.147 -20.008,0 -2.6502,1.4183 -4.131,4.6262 -5.002,7.503 -1.0871,3.5905 1.4356,7.7886 0,11.255 -2.2559,5.4462 -10.592,6.9292 -12.505,12.505 -1.0906,3.1787 2.3412,6.8253 1.2505,10.004 -1.1479,3.3455 -6.9364,4.0117 -7.503,7.503 -0.59721,3.6801 5.2936,6.2872 5.002,10.004 -0.28048,3.5748 -3.4838,6.475 -6.2525,8.7535 -3.889,3.2005 -12.749,1.3174 -13.756,6.2525 -1.3555,6.6488 11.296,8.682 13.756,15.006 1.0578,2.7194 -1.4145,6.2014 0,8.7535 1.9063,3.4394 9.559,2.3454 10.004,6.2525 0.73376,6.4428 -13.117,7.3027 -13.756,13.756 z" /><path
     style="fill:#2b1100"
     inkscape:connector-curvature="0"
     id="path45"
     d="m 60.128,271.52 c -0.76741,1.9377 -0.76894,4.9205 0.88424,6.1897 2.9434,2.2597 8.2921,1.153 11.053,-1.3264 1.4629,-1.3137 0.3231,-4.0566 1.3264,-5.7476 0.90549,-1.5262 3.544,-1.8165 3.9791,-3.537 0.4229,-1.6723 -0.22899,-4.0852 -1.7685,-4.8633 -2.3307,-1.178 -4.9302,2.5759 -7.516,2.2106 -1.9026,-0.26878 -2.9429,-3.0301 -4.8633,-3.0948 -1.8455,-0.0622 -4.7969,0.80734 -4.8633,2.6527 -0.08827,2.4512 6.0629,1.5296 6.1897,3.9791 0.09753,1.8848 -3.7263,1.7822 -4.4212,3.537 z" /><path
     style="fill:#2b1100"
     inkscape:connector-curvature="0"
     id="path47"
     d="m 49.894,311.99 c -0.46144,5.0543 9.3361,4.4452 14.381,5.002 5.4219,0.59844 11.722,1.1558 16.257,-1.8758 1.7839,-1.1926 1.704,-4.0205 3.1263,-5.6272 1.8789,-2.1227 6.5282,-2.1889 6.8778,-5.002 0.40147,-3.2307 -3.0819,-6.7642 -6.2525,-7.503 -3.9982,-0.93159 -7.2919,3.929 -11.255,5.002 -3.6434,0.98656 -8.8804,-1.684 -11.255,1.2505 -1.3174,1.6284 1.8017,4.5196 0.62525,6.2525 -0.85223,1.2553 -2.8945,0.92609 -4.3768,1.2505 -2.6779,0.58612 -7.879,-1.4794 -8.1283,1.2505 z" /><path
     style="fill:#2b1100"
     inkscape:connector-curvature="0"
     id="path49"
     d="m 70.739,237.04 c -4.2876,0.65187 -9.3401,0.37568 -12.821,-2.2106 -1.0581,-0.78607 -2.1853,-2.2864 -1.7685,-3.537 0.4168,-1.2506 2.4077,-1.0886 3.537,-1.7685 1.0861,-0.65391 1.8456,-1.9949 3.0948,-2.2106 2.1145,-0.36509 4.4766,3.0607 6.1897,1.7685 1.4119,-1.065 0.83447,-3.7462 0,-5.3054 -0.75218,-1.4055 -3.6664,-1.0896 -3.9791,-2.6527 -0.20842,-1.0421 0.88032,-2.0691 1.7685,-2.6527 1.377,-0.90479 3.8569,0.42035 4.8633,-0.88424 1.1737,-1.5214 -1.6481,-4.2516 -0.44212,-5.7476 2.7077,-3.3588 9.0966,-3.9453 12.821,-1.7685 5.1981,3.0379 8.7593,11.168 6.6318,16.801 -2.6318,6.9673 -12.532,9.0493 -19.895,10.169 z" /><path
     style="fill:#a05e00"
     inkscape:connector-curvature="0"
     id="path51"
     d="m 80.707,185.75 c -5.2392,3.0901 -2.9334,12.375 -7.0938,16.812 -1.8003,1.9201 -5.8037,1.2198 -7.0625,3.5312 -1.2731,2.3377 -1.2018,6.2724 0.875,7.9375 2.0768,1.6651 5.3116,-1.1582 7.9688,-0.875 3.7013,0.39453 7.0697,4.7297 10.594,3.5312 2.0104,-0.68368 2.381,-3.5168 3.5625,-5.2812 2.3662,-3.5336 3.9283,-7.7506 7.0625,-10.625 2.7209,-2.4954 7.8356,-2.1369 9.7188,-5.3125 1.052,-1.774 1.3092,-4.5938 0,-6.1875 -1.9076,-2.322 -5.8727,-1.2993 -8.8438,-1.75 -5.5615,-0.84369 -11.936,-4.639 -16.781,-1.7812 z M 86.8945,222 c -3.6964,1.0739 -6.549,4.0497 -9.75,6.1875 -2.9848,1.9934 -5.2619,5.6619 -8.8125,6.1875 -1.8443,0.27303 -3.6308,-2.555 -5.3125,-1.75 -2.2687,1.0859 -1.2936,4.9485 -2.6562,7.0625 -2.0352,3.1574 -8.2417,4.2222 -7.9688,7.9688 0.21417,2.9401 4.1496,5.1315 7.0938,5.2812 3.4291,0.1744 5.6743,-6.6018 8.8438,-5.2812 1.1194,0.4664 0.92366,2.3196 0.875,3.5312 -0.18689,4.654 -7.3112,9.5844 -4.4375,13.25 2.1925,2.7966 7.478,0.77574 10.625,-0.875 3.7099,-1.946 5.885,-6.0844 7.9688,-9.7188 1.2541,-2.1873 1.3203,-4.9363 2.625,-7.0938 2.0534,-3.3955 5.1084,-6.0935 7.9688,-8.8438 3.3216,-3.1938 9.6882,-4.332 10.625,-8.8438 0.53605,-2.5816 -1.3171,-5.6803 -3.5625,-7.0625 -4.0095,-2.4682 -9.6036,-1.3136 -14.125,0 z m 12.375,36.25 c -8.2911,-2.1749 -5.0221,17.387 -11.5,23 -2.8205,2.4441 -7.0494,2.4617 -10.625,3.5312 -4.3791,1.3099 -8.8941,4.9165 -13.25,3.5312 -6.5761,-2.0913 -11.764,-9.1675 -13.25,-15.906 -0.9843,-4.4636 6.6276,-9.8877 3.5312,-13.25 -2.2298,-2.4214 -8.1772,-1.1584 -9.7188,1.75 -2.7168,5.1257 6.7838,10.112 7.0625,15.906 0.1345,2.7967 -3.2995,5.2437 -2.6562,7.9688 0.76492,3.2402 4.9525,4.4872 7.0625,7.0625 3.3709,4.1141 4.4696,10.255 8.8438,13.281 3.2356,2.2382 7.8517,4.1289 11.5,2.6562 6.5212,-2.6323 7.4703,-11.924 11.5,-17.688 3.3808,-4.8353 8.6205,-8.6072 10.625,-14.156 2.0055,-5.5519 6.5849,-16.19 0.875,-17.688 z m -12.375,0.90625 c -4.5531,-1.519 -7.0612,6.5036 -10.625,9.7188 -2.6296,2.3723 -8.1805,3.5293 -7.9375,7.0625 0.21841,3.1762 4.9966,6.5322 7.9375,5.3125 1.3926,-0.57757 -0.14613,-3.3283 0.875,-4.4375 2.9122,-3.1633 10.145,0.12575 12.406,-3.5312 2.5196,-4.0748 1.8884,-12.609 -2.6562,-14.125 z" /><path
     style="fill:#deaa87"
     inkscape:connector-curvature="0"
     id="path53"
     d="m 79.139,201.23 c -1.9058,-0.24499 -4.6536,1.1848 -4.8633,3.0948 -0.20468,1.8646 4.1913,2.1154 3.9791,3.9791 -0.15732,1.3814 -3.7012,0.83001 -3.537,2.2106 0.2753,2.3138 4.4277,2.9668 6.6318,2.2106 2.0104,-0.68978 3.7072,-3.1868 3.537,-5.3054 -0.22553,-2.8065 -2.955,-5.8307 -5.7476,-6.1897 z" /><path
     style="fill:#deaa87"
     inkscape:connector-curvature="0"
     id="path55-3"
     d="m 79.16,289.65 c 0.04088,-2.5352 1.9605,-5.5785 4.4212,-6.1897 2.2387,-0.55605 5.2747,0.97728 6.1897,3.0948 0.61027,1.4124 -0.60416,3.0626 -1.3264,4.4212 -0.98316,1.8495 -2.4834,3.3969 -3.9791,4.8633 -1.8736,1.837 -4.1564,6.5218 -6.1897,4.8633 -2.0429,-1.6664 3.7008,-4.4427 3.537,-7.0739 -0.09905,-1.591 -2.6784,-2.3852 -2.6527,-3.9791 z" /><g
     id="g61"
     transform="matrix(0.49227,0.87044,-0.87044,0.49227,214.5,-56.932)"><path
       style="fill:#f8010a"
       inkscape:connector-curvature="0"
       id="path57"
       d="m 90.71,180.68 -30.948,2.9962 c 0,0 -8.1403,-8.2673 -7.9581,-13.483 0.12699,-3.6356 6.1897,-8.9886 6.1897,-8.9886 l 16.801,-3.7452 h 21.222 l -7.9581,27.715 z" /><path
       style="opacity:0.32480002;fill:url(#linearGradient1193)"
       inkscape:connector-curvature="0"
       id="path59"
       d="m 82.062,160.41 c -8.437,0.74291 -18.227,0.30389 -25.125,5.8125 -2.9935,3.1656 -2.0035,7.7802 0.84375,10.594 1.4528,3.1864 4.9623,4.9632 8.1515,3.2463 l 21.036,-2.0588 5.0312,-17.562 c -3.3123,-0.0624 -6.6249,-0.0897 -9.9375,-0.0312 z" /></g><g
     id="g67"
     transform="matrix(0.89374,-0.44858,0.44858,0.89374,-50.922,8.78)"><path
       style="fill:#f8010a"
       inkscape:connector-curvature="0"
       id="path63"
       d="m 90.71,180.68 -30.948,2.9962 c 0,0 -8.1403,-8.2673 -7.9581,-13.483 0.12699,-3.6356 6.1897,-8.9886 6.1897,-8.9886 l 16.801,-3.7452 h 21.222 l -7.9581,27.715 z" /><path
       style="opacity:0.32480002;fill:url(#linearGradient1195)"
       inkscape:connector-curvature="0"
       id="path65"
       d="m 82.062,160.41 c -8.437,0.74291 -18.227,0.30389 -25.125,5.8125 -2.9935,3.1656 -2.0035,7.7802 0.84375,10.594 1.4528,3.1864 4.9623,4.9632 8.1515,3.2463 l 21.036,-2.0588 5.0312,-17.562 c -3.3123,-0.0624 -6.6249,-0.0897 -9.9375,-0.0312 z" /></g><g
     id="g75"
     transform="matrix(0.18618,0.74563,-0.74563,0.18618,168.73,167.63)"><path
       style="fill:#ffe680"
       inkscape:connector-curvature="0"
       id="path69"
       d="m -83.37,152.71 8.2065,-4.5003 c 0,0 -6.7213,-5.2433 -6.0887,-8.7359 0.55401,-3.0588 7.35,-2.2032 7.677,-5.2945 0.67631,-6.3939 -14.479,-7.7222 -13.236,-14.03 1.1986,-6.0832 13.967,-2.2372 16.942,-7.677 2.3532,-4.3029 0.0811,-10.176 -2.1178,-14.56 -1.5666,-3.1233 -7.3837,-3.9182 -7.4123,-7.4123 -0.0312,-3.8066 7.9418,-8.2065 7.9418,-8.2065 l -14.825,-1.3236 c 0,0 -5.615,5.0942 -5.5592,8.4712 0.0175,5.7369 15.704,13.567 15.089,16.413 -1.7424,6.2509 -18.14,1.6923 -20.384,8.7359 -2.1038,6.6044 12.967,11.135 10.854,17.737 -1.1696,3.6525 -10.576,0.66514 -10.589,4.5003 -0.0102,2.8851 6.0522,1.2611 7.9418,3.4414 2.7404,6.4658 1.1111,7.2526 5.5592,12.442 z" /><path
       style="fill:#febe14"
       inkscape:connector-curvature="0"
       id="path71"
       d="m -85.465,151.71 8.2065,-4.5003 c 0,0 -6.7213,-5.2433 -6.0887,-8.7359 0.55401,-3.0588 7.35,-2.2032 7.677,-5.2945 0.67631,-6.3939 -14.479,-7.7222 -13.236,-14.03 1.1986,-6.0832 13.967,-2.2372 16.942,-7.677 2.3532,-4.3029 0.0811,-10.176 -2.1178,-14.56 -1.5666,-3.1233 -7.3837,-3.9182 -7.4123,-7.4123 -0.0312,-3.8066 7.9418,-8.2065 7.9418,-8.2065 l -14.825,-1.3236 c 0,0 -5.615,5.0942 -5.5592,8.4712 0.0175,5.7369 15.704,13.567 15.089,16.413 -1.7424,6.2509 -18.14,1.6923 -20.384,8.7359 -2.1037,6.6044 12.967,11.135 10.854,17.737 -1.1696,3.6525 -10.576,0.66514 -10.589,4.5003 -0.0102,2.8851 6.0522,1.2611 7.9418,3.4414 2.7404,6.4658 1.1111,7.2526 5.5592,12.442 z" /><path
       style="fill:#ffd42a"
       inkscape:connector-curvature="0"
       id="path73"
       d="m -87.219,82.281 c -3.6542,1.1692 -6.6435,7.3583 -2.4062,9.9062 3.8541,4.6188 11.564,6.5731 12.719,13 -3.1444,8.2381 -14.166,3.5359 -19.75,7.9688 -2.773,4.797 4.8588,6.6146 6.75,9.9375 3.5487,2.7659 5.5948,9.5274 0.40625,11.625 -1.7645,1.2574 -5.595,0.37614 -6.3438,1 4.3031,-0.18819 8.0116,2.6017 8.1875,7 0.27034,3.2117 2.26,8.82 6.1562,4.875 1.9967,-2.2551 -3.3506,-3.6452 -3.375,-6.0938 -1.8074,-3.7922 1.6275,-7.8223 5.5625,-7.5312 3.3131,-1.0426 0.28142,-4.0991 -1.8682,-4.5586 -4.2845,-2.2831 -12.374,-6.6437 -8.7568,-12.566 3.4929,-6.385 14.392,-0.79702 16.75,-8.0312 1.0301,-6.6678 -2.9044,-12.927 -8.8438,-15.656 -3.0645,-3.3501 -0.39463,-8.2324 2.6875,-10.5 -2.6134,-0.25987 -5.2465,-0.4863 -7.875,-0.375 z" /></g><path
     style="fill:#456f00"
     inkscape:connector-curvature="0"
     id="path77"
     d="m 84.556,138.98 -6.8002,-12.687 -7.4689,-5.4259 6.2605,-7.1766 -3.254,-6.7607 c 0,0 18.071,-11.473 12.187,-10.723 -5.884,0.75 -13.895,-5.8024 -13.895,-5.8024 l 4.5493,-4.9652 17.526,6.1368 c 0,0 18.61,8.3903 12.684,11.937 -5.926,3.5467 -14.356,6.2157 -14.356,6.2157 l 1.3348,4.2149 -6.8449,8.8457 6.0499,6.8028 z" /><path
     style="fill:#73cb2b"
     inkscape:connector-curvature="0"
     id="path79"
     d="m 60.128,96.869 12.687,-6.8002 5.4259,-7.4689 7.1766,6.2605 6.7607,-3.254 c 0,0 11.473,18.071 10.723,12.187 -0.75,-5.884 5.8024,-13.895 5.8024,-13.895 l 4.9652,4.5493 -6.1368,17.526 c 0,0 -8.3903,18.61 -11.937,12.684 -3.5467,-5.926 -6.2157,-14.356 -6.2157,-14.356 l -4.2149,1.3348 -8.8457,-6.8449 -6.8028,6.0499 z" /><path
     style="fill:#f8010a"
     inkscape:connector-curvature="0"
     id="path83"
     d="m 90.71,180.68 -30.948,2.9962 c 0,0 -8.1403,-8.2673 -7.9581,-13.483 0.12699,-3.6356 6.1897,-8.9886 6.1897,-8.9886 l 16.801,-3.7452 h 21.222 l -7.9581,27.715 z" /><g
     id="g93"
     transform="matrix(0.54713,0.5397,-0.5397,0.54713,208.94,84.321)"><path
       style="fill:#ffe680"
       inkscape:connector-curvature="0"
       id="path87"
       d="m -83.37,152.71 8.2065,-4.5003 c 0,0 -6.7213,-5.2433 -6.0887,-8.7359 0.55401,-3.0588 7.35,-2.2032 7.677,-5.2945 0.67631,-6.3939 -14.479,-7.7222 -13.236,-14.03 1.1986,-6.0832 13.967,-2.2372 16.942,-7.677 2.3532,-4.3029 0.0811,-10.176 -2.1178,-14.56 -1.5666,-3.1233 -7.3837,-3.9182 -7.4123,-7.4123 -0.0312,-3.8066 7.9418,-8.2065 7.9418,-8.2065 l -14.825,-1.3236 c 0,0 -5.615,5.0942 -5.5592,8.4712 0.0175,5.7369 15.704,13.567 15.089,16.413 -1.7424,6.2509 -18.14,1.6923 -20.384,8.7359 -2.1038,6.6044 12.967,11.135 10.854,17.737 -1.1696,3.6525 -10.576,0.66514 -10.589,4.5003 -0.0102,2.8851 6.0522,1.2611 7.9418,3.4414 2.7404,6.4658 1.1111,7.2526 5.5592,12.442 z" /><path
       style="fill:#febe14"
       inkscape:connector-curvature="0"
       id="path89"
       d="m -85.465,151.71 8.2065,-4.5003 c 0,0 -6.7213,-5.2433 -6.0887,-8.7359 0.55401,-3.0588 7.35,-2.2032 7.677,-5.2945 0.67631,-6.3939 -14.479,-7.7222 -13.236,-14.03 1.1986,-6.0832 13.967,-2.2372 16.942,-7.677 2.3532,-4.3029 0.0811,-10.176 -2.1178,-14.56 -1.5666,-3.1233 -7.3837,-3.9182 -7.4123,-7.4123 -0.0312,-3.8066 7.9418,-8.2065 7.9418,-8.2065 l -14.825,-1.3236 c 0,0 -5.615,5.0942 -5.5592,8.4712 0.0175,5.7369 15.704,13.567 15.089,16.413 -1.7424,6.2509 -18.14,1.6923 -20.384,8.7359 -2.1037,6.6044 12.967,11.135 10.854,17.737 -1.1696,3.6525 -10.576,0.66514 -10.589,4.5003 -0.0102,2.8851 6.0522,1.2611 7.9418,3.4414 2.7404,6.4658 1.1111,7.2526 5.5592,12.442 z" /><path
       style="fill:#ffd42a"
       inkscape:connector-curvature="0"
       id="path91"
       d="m -87.219,82.281 c -3.6542,1.1692 -6.6435,7.3583 -2.4062,9.9062 3.8541,4.6188 11.564,6.5731 12.719,13 -3.1444,8.2381 -14.166,3.5359 -19.75,7.9688 -2.773,4.797 4.8588,6.6146 6.75,9.9375 3.5487,2.7659 5.5948,9.5274 0.40625,11.625 -1.7645,1.2574 -5.595,0.37614 -6.3438,1 4.3031,-0.18819 8.0116,2.6017 8.1875,7 0.27034,3.2117 2.26,8.82 6.1562,4.875 1.9967,-2.2551 -3.3506,-3.6452 -3.375,-6.0938 -1.8074,-3.7922 1.6275,-7.8223 5.5625,-7.5312 3.3131,-1.0426 0.28142,-4.0991 -1.8682,-4.5586 -4.2845,-2.2831 -12.374,-6.6437 -8.7568,-12.566 3.4929,-6.385 14.392,-0.79702 16.75,-8.0312 1.0301,-6.6678 -2.9044,-12.927 -8.8438,-15.656 -3.0645,-3.3501 -0.39463,-8.2324 2.6875,-10.5 -2.6134,-0.25987 -5.2465,-0.4863 -7.875,-0.375 z" /></g><g
     id="g101"
     transform="matrix(0.27412,0.71797,-0.71797,0.27412,225.22,93.785)"><path
       style="fill:#ffe680"
       inkscape:connector-curvature="0"
       id="path95"
       d="m -83.37,152.71 8.2065,-4.5003 c 0,0 -6.7213,-5.2433 -6.0887,-8.7359 0.55401,-3.0588 7.35,-2.2032 7.677,-5.2945 0.67631,-6.3939 -14.479,-7.7222 -13.236,-14.03 1.1986,-6.0832 13.967,-2.2372 16.942,-7.677 2.3532,-4.3029 0.0811,-10.176 -2.1178,-14.56 -1.5666,-3.1233 -7.3837,-3.9182 -7.4123,-7.4123 -0.0312,-3.8066 7.9418,-8.2065 7.9418,-8.2065 l -14.825,-1.3236 c 0,0 -5.615,5.0942 -5.5592,8.4712 0.0175,5.7369 15.704,13.567 15.089,16.413 -1.7424,6.2509 -18.14,1.6923 -20.384,8.7359 -2.1038,6.6044 12.967,11.135 10.854,17.737 -1.1696,3.6525 -10.576,0.66514 -10.589,4.5003 -0.0102,2.8851 6.0522,1.2611 7.9418,3.4414 2.7404,6.4658 1.1111,7.2526 5.5592,12.442 z" /><path
       style="fill:#febe14"
       inkscape:connector-curvature="0"
       id="path97"
       d="m -85.465,151.71 8.2065,-4.5003 c 0,0 -6.7213,-5.2433 -6.0887,-8.7359 0.55401,-3.0588 7.35,-2.2032 7.677,-5.2945 0.67631,-6.3939 -14.479,-7.7222 -13.236,-14.03 1.1986,-6.0832 13.967,-2.2372 16.942,-7.677 2.3532,-4.3029 0.0811,-10.176 -2.1178,-14.56 -1.5666,-3.1233 -7.3837,-3.9182 -7.4123,-7.4123 -0.0312,-3.8066 7.9418,-8.2065 7.9418,-8.2065 l -14.825,-1.3236 c 0,0 -5.615,5.0942 -5.5592,8.4712 0.0175,5.7369 15.704,13.567 15.089,16.413 -1.7424,6.2509 -18.14,1.6923 -20.384,8.7359 -2.1037,6.6044 12.967,11.135 10.854,17.737 -1.1696,3.6525 -10.576,0.66514 -10.589,4.5003 -0.0102,2.8851 6.0522,1.2611 7.9418,3.4414 2.7404,6.4658 1.1111,7.2526 5.5592,12.442 z" /><path
       style="fill:#ffd42a"
       inkscape:connector-curvature="0"
       id="path99"
       d="m -87.219,82.281 c -3.6542,1.1692 -6.6435,7.3583 -2.4062,9.9062 3.8541,4.6188 11.564,6.5731 12.719,13 -3.1444,8.2381 -14.166,3.5359 -19.75,7.9688 -2.773,4.797 4.8588,6.6146 6.75,9.9375 3.5487,2.7659 5.5948,9.5274 0.40625,11.625 -1.7645,1.2574 -5.595,0.37614 -6.3438,1 4.3031,-0.18819 8.0116,2.6017 8.1875,7 0.27034,3.2117 2.26,8.82 6.1562,4.875 1.9967,-2.2551 -3.3506,-3.6452 -3.375,-6.0938 -1.8074,-3.7922 1.6275,-7.8223 5.5625,-7.5312 3.3131,-1.0426 0.28142,-4.0991 -1.8682,-4.5586 -4.2845,-2.2831 -12.374,-6.6437 -8.7568,-12.566 3.4929,-6.385 14.392,-0.79702 16.75,-8.0312 1.0301,-6.6678 -2.9044,-12.927 -8.8438,-15.656 -3.0645,-3.3501 -0.39463,-8.2324 2.6875,-10.5 -2.6134,-0.25987 -5.2465,-0.4863 -7.875,-0.375 z" /></g><path
     style="fill:#f1ca00"
     inkscape:connector-curvature="0"
     id="path103"
     d="m 33.03,297.95 c 0,0 14.649,17.408 25.01,19.383 6.6087,1.2599 15.23,-0.33424 19.383,-5.6273 24.337,-31.018 -1.2618,-79.247 5.002,-118.17 6.0584,-37.649 10.138,-78.297 31.263,-110.04 20.884,-31.386 52.273,-59.794 88.411,-70.529 29.223,-8.6809 63.002,-3.2243 91.036,8.7535 24.297,10.381 45.709,29.563 60.024,51.772 8.0037,12.417 11.973,27.754 12.505,42.517 0.35308,9.8048 2.0541,23.541 -6.2525,28.762 -93.11,58.522 -180.57,106.93 -268.23,164.44 -10.151,6.6593 -27.236,16.634 -39.703,10.629 -8.1984,-3.9486 -18.445,-21.884 -18.445,-21.884 z" /><path
     style="fill:url(#c)"
     inkscape:connector-curvature="0"
     id="path105"
     d="m 308.28,48.294 c -0.23009,-0.01262 -0.46583,0.0101 -0.71875,0.0625 -4.6845,0.0746 -5.8083,5.3571 -4.5938,8.9062 -0.6657,2.3469 -5.4994,3.9722 -2.0312,6.3125 0.80271,-0.25701 -0.0528,-4.8721 2.875,-4.0938 2.0804,0.34504 5.1413,4.9939 5.3438,0.59375 -0.21161,-2.9114 -6.0151,-0.23256 -5.7188,-4.125 -0.56778,-3.2214 3.8609,-7.1968 6.1562,-3.5938 1.2035,3.3204 2.9303,1.189 1.8125,-0.96875 -0.45916,-1.4338 -1.5144,-3.0054 -3.125,-3.0938 z m -97.625,2.9062 c -0.20243,0.01407 -0.40043,0.03594 -0.59375,0.0625 -4.361,0.35997 -5.4317,5.3274 -4.125,8.7188 -0.97798,2.1456 -5.6854,4.9061 -1.6562,6.5625 -1.2051,-2.9672 2.1222,-5.7482 4.375,-3.25 1.4283,2.7966 4.1819,1.4637 3.2812,-1.1562 -1.7336,-1.2032 -6.0545,-0.22552 -5.625,-3.7812 -0.26429,-3.7431 5.0179,-6.6736 6.7812,-2.375 2.5219,3.2643 1.4815,-4.1846 -0.6875,-4.4375 -0.514,-0.34042 -1.1427,-0.38597 -1.75,-0.34375 z m -67.188,10.625 c -0.20243,0.01407 -0.43168,0.03594 -0.625,0.0625 -4.361,0.35997 -5.4317,5.3274 -4.125,8.7188 -0.97798,2.1456 -5.6854,4.9061 -1.6562,6.5625 -1.2051,-2.9672 2.1222,-5.7482 4.375,-3.25 1.4283,2.7966 4.1819,1.4637 3.2812,-1.1562 -1.7336,-1.2032 -6.0545,-0.22552 -5.625,-3.7812 -0.26429,-3.7431 5.0179,-6.6736 6.7812,-2.375 2.5219,3.2643 1.4815,-4.1846 -0.6875,-4.4375 -0.514,-0.34042 -1.1114,-0.38597 -1.7188,-0.34375 z m 189.22,21.219 c -0.20243,0.01407 -0.40043,0.03594 -0.59375,0.0625 -4.361,0.35997 -5.4317,5.3274 -4.125,8.7188 -0.97798,2.1456 -5.6854,4.9061 -1.6562,6.5625 -1.2051,-2.9672 2.1222,-5.7482 4.375,-3.25 1.4283,2.7966 4.1819,1.4637 3.2812,-1.1562 -1.7336,-1.2032 -6.0545,-0.22552 -5.625,-3.7812 -0.26429,-3.7431 5.0179,-6.6736 6.7812,-2.375 2.5219,3.2643 1.4815,-4.1846 -0.6875,-4.4375 -0.514,-0.34042 -1.1427,-0.38597 -1.75,-0.34375 z m -91.094,4.4062 c -0.20243,0.01407 -0.40043,0.06719 -0.59375,0.09375 -4.361,0.35997 -5.4317,5.3274 -4.125,8.7188 -0.97798,2.1456 -5.6854,4.9061 -1.6562,6.5625 -1.2051,-2.9672 2.1222,-5.7482 4.375,-3.25 1.4283,2.7966 4.1819,1.4637 3.2812,-1.1562 -1.7336,-1.2032 -6.0545,-0.22552 -5.625,-3.7812 -0.26429,-3.7431 5.0179,-6.6736 6.7812,-2.375 2.5219,3.2643 1.4815,-4.1846 -0.6875,-4.4375 -0.514,-0.34042 -1.1427,-0.41722 -1.75,-0.375 z m 26.125,9.875 c -1.4552,0.02341 -3.0171,0.61099 -4.125,1.4062 -1.5308,1.0988 -2.2151,3.2539 -2.4375,5.125 -0.12484,1.0502 0.88165,2.0604 0.65625,3.0938 -0.40562,1.8596 -3.5083,2.6952 -3.375,4.5938 0.10333,1.4713 1.6621,3.5422 3.0938,3.1875 1.3906,-0.34456 -0.0744,-3.5084 1.2188,-4.125 1.8851,-0.89877 3.9181,3.3184 5.7812,2.375 1.3436,-0.68027 1.7916,-3.0405 1.0938,-4.375 -0.86562,-1.6552 -4.565,-0.26223 -5.25,-2 -0.63914,-1.6214 0.63031,-4.2629 2.3125,-4.7188 1.8807,-0.50963 3.227,4.3376 4.8438,3.25 2.0208,-1.3594 0.5348,-5.7275 -1.4375,-7.1562 -0.66267,-0.48006 -1.5019,-0.67029 -2.375,-0.65625 z m -67.156,15.562 c -5.8256,-0.005 -6.7534,8.4292 -3.125,11.219 0.49619,3.195 6.9095,2.681 3.875,-0.5625 -3.6843,0.0679 -7.1315,-3.5223 -3.9062,-6.6875 2.1963,-2.785 5.7882,0.14236 6.8438,1.6562 1.0766,-2.334 -1.0633,-5.8277 -3.6875,-5.625 z m -42.969,1.0938 c -0.20243,0.0141 -0.40043,0.0359 -0.59375,0.0625 -4.361,0.35997 -5.4317,5.3274 -4.125,8.7188 -0.97798,2.1456 -5.6854,4.9061 -1.6562,6.5625 -1.2051,-2.9672 2.1222,-5.7482 4.375,-3.25 1.4283,2.7966 4.1819,1.4637 3.2812,-1.1562 -1.7336,-1.2032 -6.0545,-0.22552 -5.625,-3.7812 -0.26429,-3.7431 5.0179,-6.6736 6.7812,-2.375 2.5219,3.2643 1.4815,-4.1846 -0.6875,-4.4375 -0.514,-0.34042 -1.1427,-0.38597 -1.75,-0.34375 z m 160.72,2.5938 c -1.4552,0.0234 -3.0171,0.64224 -4.125,1.4375 -1.5308,1.0988 -2.2151,3.2226 -2.4375,5.0938 -0.12484,1.0502 0.88165,2.0917 0.65625,3.125 -0.40562,1.8596 -3.5083,2.6952 -3.375,4.5938 0.10333,1.4714 1.6621,3.511 3.0938,3.1562 1.3906,-0.34456 -0.0744,-3.5084 1.2188,-4.125 1.8851,-0.89877 3.9181,3.3496 5.7812,2.4062 1.3436,-0.68027 1.7916,-3.0718 1.0938,-4.4062 -0.86562,-1.6552 -4.565,-0.26223 -5.25,-2 -0.63914,-1.6214 0.63032,-4.2317 2.3125,-4.6875 1.8807,-0.50963 3.227,4.3376 4.8438,3.25 2.0208,-1.3594 0.5348,-5.7275 -1.4375,-7.1562 -0.66267,-0.48006 -1.5019,-0.70155 -2.375,-0.6875 z m -124.06,6.7812 c -2.13,0.616 -1.954,6.0357 0.125,4.375 0.20853,-1.3398 -0.058,-3.4542 -0.125,-4.375 z m 68.25,10.438 c -1.4552,0.0234 -3.0171,0.61099 -4.125,1.4062 -1.5308,1.0988 -2.1838,3.2539 -2.4062,5.125 -0.12484,1.0502 0.8504,2.0604 0.625,3.0938 -0.40562,1.8596 -3.5083,2.6952 -3.375,4.5938 0.10333,1.4714 1.6621,3.5422 3.0938,3.1875 1.3906,-0.34456 -0.0744,-3.5084 1.2188,-4.125 1.8851,-0.89877 3.9181,3.3184 5.7812,2.375 1.3436,-0.68027 1.7916,-3.0405 1.0938,-4.375 -0.86562,-1.6552 -4.565,-0.26223 -5.25,-2 -0.63914,-1.6214 0.63031,-4.2629 2.3125,-4.7188 1.8807,-0.50962 3.2582,4.3376 4.875,3.25 2.0208,-1.3594 0.50355,-5.7275 -1.4688,-7.1562 -0.66267,-0.48006 -1.5019,-0.6703 -2.375,-0.65625 z m -147.34,5.8438 c -0.20243,0.0141 -0.40043,0.0359 -0.59375,0.0625 -4.361,0.35997 -5.4317,5.3274 -4.125,8.7188 -0.97798,2.1456 -5.6854,4.9061 -1.6562,6.5625 -1.2051,-2.9672 2.1222,-5.7482 4.375,-3.25 1.4283,2.7966 4.1819,1.4637 3.2812,-1.1562 -1.7336,-1.2032 -6.0545,-0.22552 -5.625,-3.7812 -0.26429,-3.7431 5.0179,-6.6736 6.7812,-2.375 2.5219,3.2643 1.4815,-4.1846 -0.6875,-4.4375 -0.514,-0.34042 -1.1427,-0.38597 -1.75,-0.34375 z m 226.38,0 c -0.20243,0.0141 -0.40043,0.0359 -0.59375,0.0625 -4.361,0.35997 -5.4317,5.3274 -4.125,8.7188 -0.97798,2.1456 -5.6854,4.9061 -1.6562,6.5625 -1.2051,-2.9672 2.1222,-5.7482 4.375,-3.25 1.4283,2.7966 4.1819,1.4637 3.2812,-1.1562 -1.7336,-1.2032 -6.0545,-0.22552 -5.625,-3.7812 -0.26429,-3.7431 5.0179,-6.6736 6.7812,-2.375 2.5219,3.2643 1.4815,-4.1846 -0.6875,-4.4375 -0.514,-0.34042 -1.1427,-0.38597 -1.75,-0.34375 z m -138.91,10.375 c -0.2095,-0.006 -0.41909,0.009 -0.625,0.0312 -4.5061,0.088 -5.9989,5.1874 -4.5312,8.75 -0.51595,2.4601 -5.5145,3.9122 -2.2188,6.4062 1.3675,0.41385 -0.28793,-4.224 2.3438,-4.0312 2.4833,-0.39803 5.8756,5.4167 5.9688,0.375 -0.74505,-2.4277 -6.8883,-0.37702 -5.6562,-4.8125 0.008,-3.6412 5.0759,-5.9598 6.7188,-1.9375 2.3958,3.3055 1.5724,-3.714 -0.28125,-4.1562 -0.46879,-0.43848 -1.0902,-0.60779 -1.7188,-0.625 z m 90.25,5.5312 c -0.20243,0.0141 -0.40043,0.0359 -0.59375,0.0625 -4.361,0.35997 -5.4317,5.3274 -4.125,8.7188 -0.97798,2.1456 -5.6854,4.9061 -1.6562,6.5625 -1.2051,-2.9672 2.1222,-5.7482 4.375,-3.25 1.4283,2.7966 4.1819,1.4637 3.2812,-1.1562 -1.7336,-1.2032 -6.0545,-0.22552 -5.625,-3.7812 -0.26429,-3.7431 5.0179,-6.6736 6.7812,-2.375 2.5219,3.2643 1.4815,-4.1846 -0.6875,-4.4375 -0.514,-0.34042 -1.1427,-0.38597 -1.75,-0.34375 z m -188.16,23.688 c -4.2813,2.1251 1.1684,4.3352 1.6875,6.8438 -1.5663,3.5392 0.15915,8.5044 4.5938,8.5625 0.97716,0.11825 1.9777,-0.13487 2.5938,-0.9375 1.584,-0.78806 2.2382,-6.9921 -0.0312,-3.8438 -1.4027,3.536 -6.0385,2.2744 -6.5625,-1.125 -1.4772,-3.6232 2.6186,-4.7652 5.25,-4.75 1.3102,-2.6024 -1.5843,-4.4757 -3.125,-1.4375 -2.3411,2.49 -5.5604,-0.3275 -4.4062,-3.3125 z m 105.56,2.4062 c -1.4552,0.0234 -3.0483,0.61099 -4.1562,1.4062 -1.5308,1.0988 -2.1838,3.2539 -2.4062,5.125 -0.12484,1.0502 0.88165,2.0604 0.65625,3.0938 -0.40562,1.8596 -3.5396,2.6952 -3.4062,4.5938 0.10333,1.4713 1.6621,3.511 3.0938,3.1562 1.3906,-0.34456 -0.0744,-3.5084 1.2188,-4.125 1.8851,-0.89877 3.9493,3.3496 5.8125,2.4062 1.3436,-0.68027 1.7604,-3.0405 1.0625,-4.375 -0.86561,-1.6552 -4.5338,-0.26223 -5.2188,-2 -0.63914,-1.6214 0.59907,-4.2629 2.2812,-4.7188 1.8807,-0.50963 3.2582,4.3376 4.875,3.25 2.0208,-1.3594 0.50355,-5.7275 -1.4688,-7.1562 -0.66267,-0.48006 -1.4707,-0.6703 -2.3438,-0.65625 z m -64.25,1.9375 c -0.87309,-0.014 -1.7123,0.20744 -2.375,0.6875 -1.9723,1.4288 -3.4583,5.7969 -1.4375,7.1562 1.6168,1.0876 2.963,-3.7596 4.8438,-3.25 1.6822,0.45582 2.9516,3.0661 2.3125,4.6875 -0.685,1.7378 -4.3844,0.34478 -5.25,2 -0.69788,1.3345 -0.2498,3.726 1.0938,4.4062 1.8632,0.94336 3.8962,-3.305 5.7812,-2.4062 1.2932,0.61655 -0.1718,3.7804 1.2188,4.125 1.4317,0.35475 2.9904,-1.6849 3.0938,-3.1562 0.13334,-1.8986 -2.9694,-2.7342 -3.375,-4.5938 -0.2254,-1.0333 0.78109,-2.0748 0.65625,-3.125 -0.22242,-1.8711 -0.90671,-3.995 -2.4375,-5.0938 -1.1079,-0.79526 -2.6698,-1.4141 -4.125,-1.4375 z m 124.62,3.3438 c -1.4552,0.0234 -3.0171,0.61099 -4.125,1.4062 -1.5308,1.0988 -2.2151,3.2539 -2.4375,5.125 -0.12484,1.0502 0.88165,2.0604 0.65625,3.0938 -0.40562,1.8596 -3.5083,2.6952 -3.375,4.5938 0.10333,1.4713 1.6621,3.511 3.0938,3.1562 1.3906,-0.34456 -0.0744,-3.5084 1.2188,-4.125 1.8851,-0.89877 3.9181,3.3496 5.7812,2.4062 1.3436,-0.68027 1.7916,-3.0405 1.0938,-4.375 -0.86562,-1.6552 -4.565,-0.26223 -5.25,-2 -0.63914,-1.6214 0.63031,-4.2629 2.3125,-4.7188 1.8807,-0.50962 3.227,4.3376 4.8438,3.25 2.0208,-1.3594 0.5348,-5.7275 -1.4375,-7.1562 -0.66267,-0.48006 -1.5019,-0.6703 -2.375,-0.65625 z m -60,28.75 c -0.20243,0.0141 -0.40043,0.0359 -0.59375,0.0625 -4.361,0.35997 -5.4317,5.3274 -4.125,8.7188 -0.97798,2.1456 -5.6854,4.9061 -1.6562,6.5625 -1.2051,-2.9672 2.1222,-5.7482 4.375,-3.25 1.4283,2.7966 4.1819,1.4637 3.2812,-1.1562 -1.7336,-1.2032 -6.0545,-0.22552 -5.625,-3.7812 -0.26429,-3.7431 5.0179,-6.6736 6.7812,-2.375 2.5219,3.2643 1.4815,-4.1846 -0.6875,-4.4375 -0.514,-0.34042 -1.1427,-0.38597 -1.75,-0.34375 z m -109.66,2.6562 c -0.20243,0.0141 -0.40043,0.0359 -0.59375,0.0625 -4.361,0.35997 -5.4317,5.3274 -4.125,8.7188 -0.97798,2.1456 -5.6854,4.9061 -1.6562,6.5625 -1.2051,-2.9672 2.1222,-5.7482 4.375,-3.25 1.4283,2.7966 4.1819,1.4637 3.2812,-1.1562 -1.7336,-1.2032 -6.0545,-0.22552 -5.625,-3.7812 -0.26429,-3.7431 5.0179,-6.6736 6.7812,-2.375 2.5219,3.2643 1.4815,-4.1846 -0.6875,-4.4375 -0.514,-0.34042 -1.1427,-0.38597 -1.75,-0.34375 z m 56.469,20.125 c -1.4552,0.0234 -3.0171,0.61099 -4.125,1.4062 -1.5308,1.0988 -2.2151,3.2539 -2.4375,5.125 -0.12484,1.0502 0.88165,2.0604 0.65625,3.0938 -0.40562,1.8595 -3.5083,2.6952 -3.375,4.5938 0.10333,1.4713 1.6621,3.5422 3.0938,3.1875 1.3906,-0.34456 -0.0744,-3.5084 1.2188,-4.125 1.8851,-0.89877 3.9181,3.3184 5.7812,2.375 1.3435,-0.68027 1.7916,-3.0405 1.0938,-4.375 -0.86561,-1.6552 -4.565,-0.26224 -5.25,-2 -0.63913,-1.6214 0.63032,-4.2317 2.3125,-4.6875 1.8807,-0.50963 3.227,4.3064 4.8438,3.2188 2.0208,-1.3594 0.5348,-5.7275 -1.4375,-7.1562 -0.66267,-0.48006 -1.5019,-0.6703 -2.375,-0.65625 z m -49.375,23.219 c -0.20243,0.0141 -0.40043,0.0359 -0.59375,0.0625 -4.361,0.35997 -5.4317,5.3274 -4.125,8.7188 -0.97798,2.1456 -5.6854,4.9061 -1.6562,6.5625 -1.2051,-2.9672 2.1222,-5.7482 4.375,-3.25 1.4283,2.7966 4.1819,1.4637 3.2812,-1.1562 -1.7336,-1.2032 -6.0545,-0.22552 -5.625,-3.7812 -0.26429,-3.7431 5.0179,-6.6736 6.7812,-2.375 2.5219,3.2643 1.4815,-4.1846 -0.6875,-4.4375 -0.514,-0.34042 -1.1427,-0.38597 -1.75,-0.34375 z" /><path
     style="fill:#a05e00"
     inkscape:connector-curvature="0"
     id="path107"
     d="m 41.892,248.34 c -1.4276,1.2211 -0.77243,4.0936 0.31262,5.6273 0.78244,1.1059 2.3968,1.5631 3.7515,1.5631 1.3547,0 2.9603,-0.46344 3.7515,-1.5631 0.85419,-1.1873 0.76643,-2.9863 0.31263,-4.3768 -0.5506,-1.687 -1.7486,-4.6047 -3.4389,-4.0641 -1.1952,0.38227 0.69516,3.0038 -0.31262,3.7515 -1.1983,0.88898 -3.2429,-1.9077 -4.3768,-0.93787 z" /><path
     style="fill:#a05e00"
     inkscape:connector-curvature="0"
     id="path109"
     d="m 53.459,213.33 c -1.4276,1.2211 -0.77243,4.0936 0.31262,5.6273 0.78244,1.1059 2.4299,1.8609 3.7515,1.5631 1.3677,-0.30814 1.6552,-2.3365 2.8136,-3.1262 1.4713,-1.0031 4.6573,-0.12872 5.002,-1.8758 0.38539,-1.9532 -2.3859,-4.0486 -4.3768,-4.0641 -1.4019,-0.0109 -2.397,0.57628 -3.1262,2.8136 -0.46241,1.4186 -3.2429,-1.9077 -4.3768,-0.93787 z" /><path
     style="fill:#a05e00"
     inkscape:connector-curvature="0"
     id="path111"
     d="m 55.96,273.98 c -1.4276,1.2211 -0.77243,4.0936 0.31262,5.6273 0.78244,1.1059 2.4299,1.8609 3.7515,1.5631 1.3677,-0.30814 1.6552,-2.3365 2.8136,-3.1262 1.4713,-1.0031 4.6573,-0.12872 5.002,-1.8758 0.38539,-1.9532 -2.3859,-4.0486 -4.3768,-4.0641 -1.4019,-0.0109 -2.397,0.57628 -3.1262,2.8136 -0.46241,1.4186 -3.2429,-1.9077 -4.3768,-0.93787 z" /><path
     style="fill:#a05e00"
     inkscape:connector-curvature="0"
     id="path113"
     d="m 50.02,305.24 c -1.4276,1.2211 -0.77243,4.0936 0.31262,5.6273 0.78244,1.1059 2.4299,1.8609 3.7515,1.5631 1.3677,-0.30814 1.6552,-2.3365 2.8136,-3.1262 1.4713,-1.0031 4.6573,-0.12872 5.002,-1.8758 0.38539,-1.9532 -2.3859,-4.0486 -4.3768,-4.0641 -1.4019,-0.0109 -2.397,0.57628 -3.1262,2.8136 -0.46241,1.4186 -3.2429,-1.9077 -4.3768,-0.93787 z" /><path
     style="fill:#a05e00"
     inkscape:connector-curvature="0"
     id="path115"
     d="m 66.589,181.75 c -1.4276,1.2211 -0.77243,4.0936 0.31262,5.6273 0.78244,1.1059 2.4299,1.8609 3.7515,1.5631 1.3677,-0.30814 1.6552,-2.3365 2.8136,-3.1262 1.4713,-1.0031 4.6573,-0.12872 5.002,-1.8758 0.38539,-1.9532 -2.3859,-4.0486 -4.3768,-4.0641 -1.4019,-0.0109 -2.397,0.57628 -3.1262,2.8136 -0.46241,1.4186 -3.2429,-1.9077 -4.3768,-0.93787 z" /><path
     style="fill:url(#b)"
     inkscape:connector-curvature="0"
     id="path117"
     d="m 235.47,11.719 c -9.7077,0.18398 -19.274,1.5372 -28.406,4.25 -36.138,10.735 -67.523,39.145 -88.406,70.531 -21.124,31.747 -25.223,72.383 -31.281,110.03 -6.2638,38.925 19.337,87.169 -5,118.19 -4.9268,4.8674 -10.445,6.6787 -16.618,10.302 8.426,-1.4165 24.998,-9.2791 30.368,-12.802 87.662,-57.51 175.14,-105.95 268.25,-164.47 8.3066,-5.2209 6.6031,-18.945 6.25,-28.75 -0.53163,-14.763 -4.4963,-30.115 -12.5,-42.531 -14.315,-22.208 -35.734,-41.369 -60.031,-51.75 -19.273,-8.2347 -41.268,-13.405 -62.625,-13 z" /><path
     style="fill:#d38d5f"
     inkscape:connector-curvature="0"
     id="path119"
     d="m 63.281,274.12 c -1.0798,2.0764 -3.7717,4.7396 -5.9062,2.0312 -1.0868,1.2492 2.1122,4.7897 3.0938,1.75 0.84654,-2.1282 3.5745,-2.7866 5.1875,-2.5312 -0.61255,-0.62988 -1.4653,-1.3342 -2.375,-1.25 z" /><path
     style="fill:#d38d5f"
     inkscape:connector-curvature="0"
     id="path121"
     d="m 48.062,250.19 c -1.0756,1.9385 -4.3048,0.74022 -4.9688,1.0312 0.38185,3.4918 6.8042,3.214 4.9688,-1.0312 z m -1.9688,3.4375 c -0.04293,0.0577 0.10364,0.0325 0,0 z" /><path
     style="fill:#deaa87"
     inkscape:connector-curvature="0"
     id="path123"
     d="m 75.602,242.34 c -1.9058,-0.24499 -4.6536,1.1848 -4.8633,3.0948 -0.20468,1.8646 4.1913,2.1154 3.9791,3.9791 -0.15732,1.3814 -3.7012,0.83001 -3.537,2.2106 0.2753,2.3138 4.4277,2.9668 6.6318,2.2106 2.0104,-0.68978 3.7072,-3.1868 3.537,-5.3054 -0.22553,-2.8065 -2.955,-5.8307 -5.7476,-6.1897 z" /><path
     style="fill:#73cb2b"
     inkscape:connector-curvature="0"
     id="path127"
     d="m 35.37,152.15 9.7266,-10.611 2.6527,-8.8424 8.8424,3.537 5.3054,-5.3054 c 0,0 16.801,13.264 14.148,7.9581 -2.653,-5.3059 0.88424,-15.032 0.88424,-15.032 l 6.1897,2.6527 v 18.569 c 0,0 -1.7685,20.337 -7.0739,15.916 -5.3054,-4.421 -10.611,-11.495 -10.611,-11.495 l -3.537,2.6527 -10.611,-3.537 -4.4212,7.9582 z" /><path
     style="opacity:0.36400003;fill:#d5ffd5"
     inkscape:connector-curvature="0"
     id="path129"
     d="m 62.031,136.28 c -2.2434,1.686 -4.8866,5.7786 -8.0312,2.875 -1.7998,-1.6251 -5.5578,-1.7572 -4.6562,1.5312 -0.40868,4.4381 -4.5269,7.1297 -7.4062,10.031 1.5135,1.341 3.3943,1.8689 3.4375,-0.65625 1.8367,-4.5715 8.256,-6.7323 11.844,-3.0312 4.8029,0.14142 11.52,-2.3972 14.159,3.3151 1.7561,1.4915 3.7317,5.8253 5.529,5.3412 1.6005,-4.0718 2.5698,-10.186 2.1875,-13.438 -4.4615,4.3002 -10.561,-1.0756 -13.969,-4.4062 -0.94275,-0.55418 -1.8592,-1.7915 -3.0938,-1.5625 z" /><path
     style="opacity:0.32480002;fill:url(#linearGradient965)"
     inkscape:connector-curvature="0"
     id="path131"
     d="m 82.062,160.41 c -8.437,0.74291 -18.227,0.30389 -25.125,5.8125 -2.9935,3.1656 -2.0035,7.7802 0.84375,10.594 1.4528,3.1864 4.9623,4.9632 8.1515,3.2463 l 21.036,-2.0588 5.0312,-17.562 c -3.3123,-0.0624 -6.6249,-0.0897 -9.9375,-0.0312 z" /></g></svg>