<?xml version="1.0" encoding="UTF-8" standalone="no"?>
<svg
   xmlns:dc="http://purl.org/dc/elements/1.1/"
   xmlns:cc="http://creativecommons.org/ns#"
   xmlns:rdf="http://www.w3.org/1999/02/22-rdf-syntax-ns#"
   xmlns:svg="http://www.w3.org/2000/svg"
   xmlns="http://www.w3.org/2000/svg"
   viewBox="0 0 460 300"
   height="300"
   width="460"
   xml:space="preserve"
   id="svg2"
   version="1.1"><metadata
     id="metadata8"><rdf:RDF><cc:Work
         rdf:about=""><dc:format>image/svg+xml</dc:format><dc:type
           rdf:resource="http://purl.org/dc/dcmitype/StillImage" /><dc:title></dc:title></cc:Work></rdf:RDF></metadata><defs
     id="defs6"><clipPath
       id="clipPath22"
       clipPathUnits="userSpaceOnUse"><path
         id="path20"
         d="M 0,225 H 345 V 0 H 0 Z" /></clipPath></defs><g
     transform="matrix(1.3333333,0,0,-1.3333333,0,300)"
     id="g10"><g
       transform="translate(13.0322,63.2295)"
       id="g12"><path
         id="path14"
         style="fill:#231f20;fill-opacity:1;fill-rule:evenodd;stroke:none"
         d="M 0,0 V -10.28 H -2.5 V 0 h -8.032 V 3.051 H -2.5 V 159.919 H 0 V 3.051 H 329.382 V 0 Z" /></g><g
       id="g16"><g
         clip-path="url(#clipPath22)"
         id="g18"><g
           transform="translate(65.7051,178.23)"
           id="g24"><path
             id="path26"
             style="fill:#0b0c0b;fill-opacity:1;fill-rule:evenodd;stroke:none"
             d="m 0,0 c 5.352,0.573 11.345,0.893 17.605,0.893 16.718,0 28.08,-3.527 36.439,-10.449 9.534,-7.836 15.15,-20.244 15.15,-38.397 0,-21.549 -7.444,-34.088 -15.15,-41.009 -9.143,-8.229 -23.117,-12.278 -40.618,-12.278 -9.273,0 -16.718,0.654 -21.811,1.307 v 97.465 c 1.423,0.503 2.86,0.968 4.31,1.393 C -2.727,-0.681 -1.367,-0.321 0,0 m -18.833,-6.905 v -93.42 h -19.33 v 81.721 c 1.151,0.803 2.308,1.597 3.474,2.378 5.095,3.413 10.357,6.602 15.856,9.321 m 238.09,30.93 V -84 h 35.916 v -16.325 h -55.245 v 123.13 c 3.296,0.737 6.658,1.164 10.029,1.35 1.149,0.063 2.301,0.099 3.452,0.11 0.694,0.007 1.387,0.007 2.08,-0.009 0.772,-0.019 1.542,-0.057 2.312,-0.111 0.486,-0.034 0.971,-0.075 1.456,-0.12 m -44.278,-99.404 c 0,-9.274 -7.576,-12.538 -12.147,-12.538 -4.832,0 -9.142,3.003 -9.142,9.925 0,10.579 10.84,13.06 21.289,13.06 z m -47.234,-8.751 c -4.963,-1.699 -10.579,-3.004 -17.762,-3.004 -10.448,0 -19.329,4.963 -19.852,17.371 h 43.491 c 0.392,2.089 0.523,4.831 0.523,7.704 0,23.509 -11.494,36.047 -29.125,36.047 -21.289,0 -33.304,-18.023 -33.304,-38.92 0,-22.594 12.799,-36.699 35.263,-36.699 9.011,0 17.5,1.567 23.508,4.179 z M 10.814,-15.041 c 2.09,0.392 5.093,0.783 9.142,0.783 17.893,0 28.994,-11.232 28.994,-33.956 0,-26.382 -12.277,-37.744 -30.692,-37.615 -2.612,0 -5.485,0 -7.444,0.392 z m 79.317,-41.271 c 0.523,7.184 4.441,16.849 13.714,16.849 9.534,0 12.538,-9.274 12.407,-16.849 z m 103.654,-0.13 c 0,15.933 -6.138,30.299 -28.732,30.299 -11.363,0 -20.374,-3.265 -25.206,-6.138 l 3.656,-12.537 c 4.702,2.872 11.232,4.963 17.893,4.963 10.579,0 13.06,-5.485 13.06,-12.669 -23.116,0 -39.703,-8.75 -39.703,-27.427 0,-11.755 8.358,-21.811 21.81,-21.811 8.098,0 15.151,3.265 19.33,9.012 h 0.392 l 1.175,-7.575 h 17.37 c -0.783,4.441 -1.045,10.84 -1.045,17.24 z" /></g><g
           transform="translate(48.7397,36.4434)"
           id="g28"><path
             id="path30"
             style="fill:#5fc232;fill-opacity:1;fill-rule:evenodd;stroke:none"
             d="m 0,0 c -1.79,2.587 -4.399,3.881 -7.827,3.881 -1.066,0 -2.113,-0.141 -3.142,-0.422 -1.028,-0.281 -1.951,-0.713 -2.77,-1.294 -0.819,-0.581 -1.476,-1.331 -1.971,-2.25 -0.495,-0.919 -0.743,-1.997 -0.743,-3.234 0,-1.8 0.515,-3.197 1.543,-4.191 1.028,-0.993 2.304,-1.809 3.827,-2.446 1.523,-0.638 3.19,-1.21 4.999,-1.716 1.809,-0.507 3.475,-1.182 4.999,-2.025 1.523,-0.844 2.799,-1.959 3.827,-3.347 1.028,-1.388 1.542,-3.281 1.542,-5.681 0,-1.8 -0.39,-3.421 -1.171,-4.866 -0.78,-1.443 -1.809,-2.652 -3.085,-3.628 -1.276,-0.974 -2.703,-1.724 -4.284,-2.25 -1.58,-0.524 -3.171,-0.787 -4.77,-0.787 -2.476,0 -4.828,0.459 -7.056,1.378 -2.228,0.919 -4.122,2.428 -5.684,4.528 l 3.714,2.644 c 0.876,-1.463 2.094,-2.635 3.656,-3.516 1.562,-0.881 3.409,-1.322 5.541,-1.322 1.028,0 2.057,0.16 3.085,0.479 1.028,0.318 1.952,0.787 2.77,1.406 0.819,0.619 1.496,1.378 2.029,2.278 0.533,0.9 0.8,1.931 0.8,3.094 0,1.387 -0.296,2.54 -0.886,3.459 -0.59,0.919 -1.371,1.687 -2.342,2.306 -0.971,0.619 -2.076,1.134 -3.313,1.546 -1.238,0.413 -2.514,0.826 -3.828,1.239 -1.314,0.412 -2.59,0.881 -3.828,1.406 -1.237,0.524 -2.342,1.19 -3.313,1.996 -0.971,0.807 -1.752,1.819 -2.342,3.038 -0.59,1.219 -0.886,2.746 -0.886,4.584 0,1.912 0.372,3.581 1.115,5.006 0.742,1.426 1.732,2.606 2.97,3.544 1.238,0.937 2.637,1.631 4.199,2.081 1.561,0.45 3.161,0.675 4.798,0.675 2.285,0 4.361,-0.356 6.227,-1.069 C 0.267,5.812 2,4.556 3.599,2.756 Z m 215.882,7.256 c 2.895,0 5.238,-0.656 7.028,-1.969 1.79,-1.312 3.179,-2.981 4.17,-5.006 0.99,-2.025 1.656,-4.247 1.999,-6.666 0.342,-2.419 0.514,-4.734 0.514,-6.946 0,-2.213 -0.172,-4.528 -0.514,-6.947 -0.343,-2.419 -1.009,-4.641 -1.999,-6.665 -0.991,-2.026 -2.38,-3.695 -4.17,-5.007 -1.79,-1.313 -4.133,-1.969 -7.028,-1.969 -2.894,0 -5.236,0.656 -7.026,1.969 -1.79,1.312 -3.18,2.981 -4.17,5.007 -0.99,2.024 -1.657,4.246 -2,6.665 -0.343,2.419 -0.514,4.734 -0.514,6.947 0,2.212 0.171,4.527 0.514,6.946 0.343,2.419 1.01,4.641 2,6.666 0.99,2.025 2.38,3.694 4.17,5.006 1.79,1.313 4.132,1.969 7.026,1.969 M 25.307,-33.243 H 21.194 V 6.581 H 45.587 V 2.868 H 25.307 V -10.688 H 44.159 V -14.4 H 25.307 Z M 61.526,6.581 H 73.58 c 1.675,0 3.294,-0.169 4.855,-0.507 1.562,-0.337 2.952,-0.899 4.17,-1.687 1.219,-0.787 2.19,-1.819 2.914,-3.094 0.724,-1.274 1.085,-2.85 1.085,-4.725 0,-2.174 -0.619,-4.04 -1.856,-5.596 -1.238,-1.557 -2.999,-2.597 -5.285,-3.122 v -0.113 c 2.857,-0.224 5.094,-1.209 6.713,-2.953 1.618,-1.744 2.428,-4.078 2.428,-7.003 0,-0.637 -0.162,-1.575 -0.486,-2.812 -0.324,-1.238 -0.999,-2.466 -2.028,-3.685 -1.028,-1.219 -2.513,-2.277 -4.456,-3.178 -1.942,-0.9 -4.532,-1.349 -7.769,-1.349 H 61.526 Z M 215.882,3.543 c -2.208,0 -3.951,-0.581 -5.226,-1.743 -1.277,-1.163 -2.238,-2.607 -2.885,-4.331 -0.647,-1.726 -1.058,-3.563 -1.229,-5.513 -0.171,-1.95 -0.256,-3.713 -0.256,-5.287 0,-1.575 0.085,-3.338 0.256,-5.288 0.171,-1.949 0.582,-3.787 1.229,-5.512 0.647,-1.725 1.608,-3.169 2.885,-4.332 1.275,-1.162 3.018,-1.743 5.226,-1.743 2.209,0 3.952,0.581 5.228,1.743 1.275,1.163 2.237,2.607 2.885,4.332 0.647,1.725 1.056,3.563 1.228,5.512 0.171,1.95 0.257,3.713 0.257,5.288 0,1.574 -0.086,3.337 -0.257,5.287 -0.172,1.95 -0.581,3.787 -1.228,5.513 -0.648,1.724 -1.61,3.168 -2.885,4.331 -1.276,1.162 -3.019,1.743 -5.228,1.743 M 65.639,-29.531 h 7.883 c 1.485,0 2.875,0.15 4.17,0.45 1.295,0.3 2.419,0.759 3.371,1.378 0.952,0.619 1.705,1.396 2.256,2.334 0.553,0.937 0.829,2.062 0.829,3.375 0,2.625 -0.857,4.575 -2.571,5.85 -1.714,1.275 -4.227,1.913 -7.54,1.913 h -8.398 z m 0,18.675 h 8.283 c 0.991,0 1.971,0.122 2.942,0.365 0.971,0.244 1.847,0.647 2.628,1.21 0.781,0.562 1.419,1.284 1.914,2.165 0.495,0.882 0.742,1.96 0.742,3.234 0,0.413 -0.085,0.994 -0.257,1.744 -0.171,0.75 -0.552,1.5 -1.142,2.25 -0.59,0.75 -1.457,1.397 -2.6,1.941 -1.142,0.544 -2.684,0.815 -4.627,0.815 h -7.883 z m 73.579,-22.387 h -4.113 V 1.519 l -7.255,-6.3 -2.57,3.037 10.282,8.325 h 3.656 z m 40.332,0 h -4.113 V 1.519 l -7.255,-6.3 -2.571,3.037 10.283,8.325 h 3.656 z m 89.233,0 h -25.708 v 4.668 l 16.11,16.143 c 0.609,0.601 1.219,1.238 1.828,1.913 0.61,0.675 1.161,1.387 1.656,2.137 0.496,0.75 0.896,1.538 1.201,2.363 0.304,0.825 0.457,1.687 0.457,2.587 0,1.088 -0.201,2.063 -0.6,2.925 -0.4,0.862 -0.962,1.594 -1.685,2.195 -0.724,0.599 -1.562,1.058 -2.514,1.377 -0.952,0.319 -1.962,0.478 -3.028,0.478 -2.056,0 -3.808,-0.563 -5.255,-1.688 -1.448,-1.125 -2.381,-2.643 -2.8,-4.555 l -4.342,0.45 c 0.571,2.962 1.952,5.287 4.143,6.975 2.189,1.687 4.845,2.531 7.968,2.531 1.638,0 3.19,-0.216 4.657,-0.647 1.465,-0.431 2.76,-1.078 3.883,-1.941 1.124,-0.862 2.019,-1.94 2.686,-3.234 0.666,-1.293 1,-2.803 1,-4.528 0,-1.538 -0.238,-2.944 -0.715,-4.219 -0.475,-1.275 -1.095,-2.475 -1.856,-3.6 -0.762,-1.125 -1.628,-2.193 -2.599,-3.206 -0.972,-1.013 -1.972,-2.006 -3,-2.982 l -12.739,-12.43 h 21.252 z m -289.98,180.885 c 5.781,3.469 11.78,6.581 18.024,9.131 3.864,1.578 7.817,2.941 11.84,4.049 3.96,1.092 7.989,1.936 12.056,2.513 3.028,0.429 6.078,0.71 9.134,0.842 1.746,0.075 3.494,0.098 5.242,0.082 1.466,-0.014 2.932,-0.056 4.397,-0.128 4.087,-0.201 8.166,-0.641 12.192,-1.379 3.517,-0.644 6.992,-1.518 10.388,-2.639 2.512,-0.83 4.979,-1.795 7.389,-2.885 2.269,-1.027 4.487,-2.164 6.657,-3.388 1.99,-1.122 3.939,-2.316 5.862,-3.549 2.164,-1.387 4.297,-2.822 6.442,-4.239 0.576,-0.378 1.153,-0.755 1.731,-1.13 2.511,-1.619 5.066,-3.18 7.758,-4.483 2.337,-1.13 4.774,-2.055 7.295,-2.683 1.097,-0.274 2.207,-0.492 3.324,-0.656 4.843,-0.714 9.784,-0.413 14.596,0.39 0.917,0.154 1.831,0.325 2.743,0.513 1.066,0.221 2.127,0.463 3.183,0.724 2.569,0.635 5.111,1.38 7.626,2.202 2.358,0.77 4.699,1.593 6.988,2.549 3.056,1.274 6.023,2.757 8.888,4.417 3.569,2.066 6.973,4.404 10.267,6.882 4.066,3.059 7.971,6.327 11.919,9.536 0.575,0.466 1.15,0.931 1.727,1.395 1.463,1.17 2.935,2.331 4.428,3.462 2.355,1.784 4.764,3.5 7.248,5.101 2.137,1.375 4.33,2.664 6.583,3.841 2.364,1.235 4.792,2.346 7.276,3.315 3.661,1.428 7.439,2.547 11.284,3.36 4.116,0.87 8.302,1.391 12.502,1.623 1.274,0.07 2.549,0.114 3.825,0.134 1.109,0.017 2.218,0.019 3.328,-0.007 1.178,-0.029 2.354,-0.089 3.53,-0.176 4.363,-0.321 8.698,-0.993 12.986,-1.85 4.805,-0.961 9.559,-2.163 14.267,-3.517 2.819,-0.811 5.623,-1.679 8.41,-2.596 v -13.726 c -1.023,0.357 -2.048,0.707 -3.076,1.05 -3.109,1.038 -6.241,2.013 -9.394,2.912 -4.374,1.247 -8.792,2.354 -13.255,3.228 -3.599,0.705 -7.235,1.265 -10.894,1.534 -0.961,0.071 -1.923,0.122 -2.886,0.145 -0.938,0.022 -1.879,0.019 -2.818,0.004 -1.103,-0.017 -2.205,-0.054 -3.306,-0.115 -4.056,-0.224 -8.098,-0.763 -12.052,-1.704 -3.422,-0.815 -6.769,-1.934 -9.99,-3.349 -1.985,-0.873 -3.922,-1.855 -5.806,-2.927 -1.868,-1.063 -3.685,-2.214 -5.458,-3.426 -3.158,-2.157 -6.178,-4.506 -9.154,-6.904 -2.079,-1.675 -4.138,-3.373 -6.209,-5.059 -0.581,-0.472 -1.163,-0.943 -1.746,-1.413 -2.936,-2.356 -5.909,-4.667 -8.987,-6.836 -3.549,-2.502 -7.232,-4.816 -11.069,-6.851 -2.815,-1.492 -5.708,-2.836 -8.668,-4.014 -2.076,-0.826 -4.185,-1.564 -6.306,-2.262 -3.134,-1.033 -6.304,-1.958 -9.512,-2.73 -5.005,-1.205 -10.117,-2.04 -15.267,-2.222 -2.296,-0.08 -4.597,-0.029 -6.886,0.178 -2.181,0.197 -4.35,0.538 -6.486,1.028 -1.993,0.457 -3.955,1.046 -5.872,1.754 -1.874,0.692 -3.704,1.497 -5.49,2.39 -2.038,1.019 -4.017,2.151 -5.958,3.345 -1.251,0.77 -2.485,1.567 -3.714,2.37 -1.606,1.056 -3.204,2.124 -4.809,3.182 -1.297,0.851 -2.599,1.696 -3.919,2.513 -1.643,1.017 -3.312,1.993 -5.017,2.903 -1.66,0.886 -3.354,1.709 -5.083,2.453 -1.718,0.74 -3.471,1.403 -5.25,1.984 -2.766,0.904 -5.594,1.608 -8.456,2.132 -3.464,0.635 -6.972,1.009 -10.489,1.182 -1.293,0.063 -2.587,0.1 -3.881,0.113 -1.52,0.014 -3.04,-0.006 -4.559,-0.071 -2.632,-0.113 -5.259,-0.356 -7.868,-0.726 -3.518,-0.499 -7.002,-1.23 -10.427,-2.173 -3.528,-0.973 -6.992,-2.169 -10.378,-3.552 -6.511,-2.659 -12.721,-6.006 -18.68,-9.73 -1.433,-0.896 -2.852,-1.814 -4.26,-2.749 z" /></g></g></g></g></svg>